<svg width="1096" height="643" xmlns="http://www.w3.org/2000/svg" xmlns:xlink="http://www.w3.org/1999/xlink" overflow="hidden"><defs><clipPath id="clip0"><rect x="0" y="0" width="1096" height="643"/></clipPath></defs><g clip-path="url(#clip0)"><rect x="0" y="0" width="1096" height="643.5" fill="#FFFFFF"/><path d="M421 238.519C421 235.018 423.836 232.181 427.333 232.181L565.667 232.181C569.164 232.181 572 235.018 572 238.519L572 263.872C572 267.372 569.164 270.21 565.667 270.21L427.333 270.21C423.836 270.21 421 267.372 421 263.872Z" stroke="#4472C4" stroke-width="4" stroke-miterlimit="8" fill="#FFFFFF" fill-rule="evenodd"/><text font-family="Yu Gothic,Yu Gothic_MSFontService,sans-serif" font-weight="400" font-size="16.0125" transform="matrix(1 0 0 1.00078 432.353 257)">メカニズム理解</text><path d="M230 336.762C230 333.169 232.91 330.257 236.5 330.257L364.5 330.257C368.09 330.257 371 333.169 371 336.762L371 362.782C371 366.375 368.09 369.287 364.5 369.287L236.5 369.287C232.91 369.287 230 366.375 230 362.782Z" stroke="#4472C4" stroke-width="4" stroke-miterlimit="8" fill="#FFFFFF" fill-rule="evenodd"/><text font-family="Calibri,Calibri_MSFontService,sans-serif" font-weight="400" font-size="16.0125" transform="matrix(1 0 0 1.00078 241.298 355)">Grokking</text><text font-family="Yu Gothic,Yu Gothic_MSFontService,sans-serif" font-weight="400" font-size="16.0125" transform="matrix(1 0 0 1.00078 299.371 355)">研究</text><path d="M421 335.761C421 332.168 423.91 329.256 427.5 329.256L595.5 329.256C599.09 329.256 602 332.168 602 335.761L602 361.781C602 365.374 599.09 368.286 595.5 368.286L427.5 368.286C423.91 368.286 421 365.374 421 361.781Z" stroke="#4472C4" stroke-width="4" stroke-miterlimit="8" fill="#FFFFFF" fill-rule="evenodd"/><text font-family="Yu Gothic,Yu Gothic_MSFontService,sans-serif" font-weight="400" font-size="16.0125" transform="matrix(1 0 0 1.00078 432.353 355)">汎化進捗の把握方法</text><path d="M421 453.686C421 450.186 423.836 447.348 427.333 447.348L595.667 447.348C599.164 447.348 602 450.186 602 453.686L602 479.039C602 482.54 599.164 485.377 595.667 485.377L427.333 485.377C423.836 485.377 421 482.54 421 479.039Z" stroke="#4472C4" stroke-width="4" stroke-miterlimit="8" fill="#FFFFFF" fill-rule="evenodd"/><text font-family="Calibri,Calibri_MSFontService,sans-serif" font-weight="400" font-size="16.0125" transform="matrix(1 0 0 1.00078 432.353 472)">Grokking</text><text font-family="Yu Gothic,Yu Gothic_MSFontService,sans-serif" font-weight="400" font-size="16.0125" transform="matrix(1 0 0 1.00078 490.426 472)">高速化法</text><path d="M0 0C12.4152 0 24.8302 24.5719 24.8302 49.1438 24.8302 73.7157 37.2454 98.2877 49.6605 98.2877" stroke="#4472C4" stroke-width="4" stroke-miterlimit="8" fill="none" fill-rule="evenodd" transform="matrix(1 0 0 -1.00078 371 349.559)"/><path d="M0 0C12.4151 0 24.8302 0.172441 24.8302 0.344882 24.8302 0.517323 37.2454 0.689764 49.6605 0.689764" stroke="#4472C4" stroke-width="4" stroke-miterlimit="8" fill="none" fill-rule="evenodd" transform="matrix(1 0 0 -1.00078 371 349.962)"/><path d="M371 349.272C383.415 349.272 395.83 378.479 395.83 407.686 395.83 436.893 408.245 466.1 420.66 466.1" stroke="#4472C4" stroke-width="4" stroke-miterlimit="8" fill="none" fill-rule="evenodd"/><path d="M622 143.612C622 140.019 624.91 137.107 628.5 137.107L766.5 137.107C770.09 137.107 773 140.019 773 143.612L773 169.632C773 173.225 770.09 176.137 766.5 176.137L628.5 176.137C624.91 176.137 622 173.225 622 169.632Z" stroke="#4472C4" stroke-width="4" stroke-miterlimit="8" fill="#FFFFFF" fill-rule="evenodd"/><text font-family="Yu Gothic,Yu Gothic_MSFontService,sans-serif" font-weight="400" font-size="16.0125" transform="matrix(1 0 0 1.00078 633.754 162)">他現象との統合</text><path d="M0 0C12.5876 0 25.175 23.6251 25.175 47.2502 25.175 70.8754 37.7626 94.5005 50.35 94.5005" stroke="#4472C4" stroke-width="4" stroke-miterlimit="8" fill="none" fill-rule="evenodd" transform="matrix(1 0 0 -1.00078 572 251.696)"/><path d="M812 94.5737C812 90.981 814.91 88.0685 818.5 88.0685L1023.5 88.0685C1027.09 88.0685 1030 90.981 1030 94.5737L1030 120.594C1030 124.186 1027.09 127.099 1023.5 127.099L818.5 127.099C814.91 127.099 812 124.186 812 120.594Z" stroke="#4472C4" stroke-width="4" stroke-miterlimit="8" fill="#FFFFFF" fill-rule="evenodd"/><text font-family="Calibri,Calibri_MSFontService,sans-serif" font-weight="400" font-size="16.0125" transform="matrix(1 0 0 1.00078 823.775 113)">Grokking</text><text font-family="Yu Gothic,Yu Gothic_MSFontService,sans-serif" font-weight="400" font-size="16.0125" transform="matrix(1 0 0 1.00078 881.848 113)">と宝くじ仮説</text><path d="M812 143.612C812 140.019 814.91 137.107 818.5 137.107L1023.5 137.107C1027.09 137.107 1030 140.019 1030 143.612L1030 169.632C1030 173.224 1027.09 176.137 1023.5 176.137L818.5 176.137C814.91 176.137 812 173.224 812 169.632Z" stroke="#4472C4" stroke-width="4" stroke-miterlimit="8" fill="#FFFFFF" fill-rule="evenodd"/><text font-family="Calibri,Calibri_MSFontService,sans-serif" font-weight="400" font-size="16.0125" transform="matrix(1 0 0 1.00078 823.775 162)">Grokking</text><text font-family="Yu Gothic,Yu Gothic_MSFontService,sans-serif" font-weight="400" font-size="16.0125" transform="matrix(1 0 0 1.00078 881.848 162)">と二重降下</text><path d="M621 191.482C621 187.982 623.836 185.144 627.334 185.144L777.666 185.144C781.164 185.144 784 187.982 784 191.482L784 216.835C784 220.336 781.164 223.174 777.666 223.174L627.334 223.174C623.836 223.174 621 220.336 621 216.835Z" stroke="#4472C4" stroke-width="4" stroke-miterlimit="8" fill="#FFFFFF" fill-rule="evenodd"/><text font-family="Calibri,Calibri_MSFontService,sans-serif" font-weight="400" font-size="16.0125" transform="matrix(1 0 0 1.00078 632.375 210)">Softmax</text><text font-family="Calibri,Calibri_MSFontService,sans-serif" font-weight="400" font-size="16.0125" transform="matrix(1 0 0 1.00078 689.395 210)">Collapse</text><path d="M0 0C12.2427 0 24.4853 11.7694 24.4853 23.5389 24.4853 35.3083 36.728 47.0778 48.9706 47.0778" stroke="#4472C4" stroke-width="4" stroke-miterlimit="8" fill="none" fill-rule="evenodd" transform="matrix(1 0 0 -1.00078 572 251.273)"/><path d="M0 0C9.74242 0 19.4848 12.329 19.4848 24.6581 19.4848 36.9871 29.2272 49.3161 38.9697 49.3161" stroke="#4472C4" stroke-width="4" stroke-miterlimit="8" fill="none" fill-rule="evenodd" transform="matrix(1 0 0 -1.00078 773 156.438)"/><path d="M0 0C9.74247 0 19.4848 0.000209974 19.4848 0.000419947 19.4848 0.000524934 29.2273 0.000734908 38.9697 0.000734908" stroke="#4472C4" stroke-width="4" stroke-miterlimit="8" fill="none" fill-rule="evenodd" transform="matrix(1 0 0 -1.00078 773 157.123)"/><path d="M652 394.64C652 391.14 654.836 388.302 658.333 388.302L747.667 388.302C751.164 388.302 754 391.14 754 394.64L754 419.993C754 423.494 751.164 426.332 747.667 426.332L658.333 426.332C654.836 426.332 652 423.494 652 419.993Z" stroke="#4472C4" stroke-width="4" stroke-miterlimit="8" fill="#FFFFFF" fill-rule="evenodd"/><text font-family="Yu Gothic,Yu Gothic_MSFontService,sans-serif" font-weight="400" font-size="16.0125" transform="matrix(1 0 0 1.00078 663.413 413)">勾配増幅</text><path d="M652 442.844C652 439.252 654.91 436.339 658.5 436.339L812.5 436.339C816.09 436.339 819 439.252 819 442.844L819 468.864C819 472.457 816.09 475.37 812.5 475.37L658.5 475.37C654.91 475.37 652 472.457 652 468.864Z" stroke="#4472C4" stroke-width="4" stroke-miterlimit="8" fill="#FFFFFF" fill-rule="evenodd"/><text font-family="Yu Gothic,Yu Gothic_MSFontService,sans-serif" font-weight="400" font-size="16.0125" transform="matrix(1 0 0 1.00078 663.413 461)">宝くじ仮説の手法</text><path d="M652 490.882C652 487.289 654.91 484.377 658.5 484.377L778.5 484.377C782.09 484.377 785 487.289 785 490.882L785 516.902C785 520.495 782.09 523.407 778.5 523.407L658.5 523.407C654.91 523.407 652 520.495 652 516.902Z" stroke="#4472C4" stroke-width="4" stroke-miterlimit="8" fill="#FFFFFF" fill-rule="evenodd"/><text font-family="Yu Gothic,Yu Gothic_MSFontService,sans-serif" font-weight="400" font-size="16.0125" transform="matrix(1 0 0 1.00078 663.413 510)">埋め込み転移</text><path d="M0 0C12.4151 0 24.8303 14.7862 24.8303 29.5724 24.8303 44.3586 37.2454 59.1448 49.6605 59.1448" stroke="#4472C4" stroke-width="4" stroke-miterlimit="8" fill="none" fill-rule="evenodd" transform="matrix(1 0 0 -1.00078 602 466.508)"/><path d="M0 0C12.4151 0 24.8302 2.71602 24.8302 5.4321 24.8302 8.14812 37.2454 10.8641 49.6605 10.8641" stroke="#4472C4" stroke-width="4" stroke-miterlimit="8" fill="none" fill-rule="evenodd" transform="matrix(1 0 0 -1.00078 602 466.227)"/><path d="M602 466.363C614.415 466.363 626.83 475.724 626.83 485.085 626.83 494.447 639.245 503.808 651.66 503.808" stroke="#4472C4" stroke-width="4" stroke-miterlimit="8" fill="none" fill-rule="evenodd"/><text font-family="Calibri,Calibri_MSFontService,sans-serif" font-weight="400" font-size="16.0125" transform="matrix(1 0 0 1.00078 1039.5 112)">[1]</text><text font-family="Calibri,Calibri_MSFontService,sans-serif" font-weight="400" font-size="16.0125" transform="matrix(1 0 0 1.00078 828.442 463)">[1]</text><text font-family="Calibri,Calibri_MSFontService,sans-serif" font-weight="400" font-size="16.0125" transform="matrix(1 0 0 1.00078 794.646 509)">[4]GrokTransfer</text><text font-family="Calibri,Calibri_MSFontService,sans-serif" font-weight="400" font-size="16.0125" transform="matrix(1 0 0 1.00078 763.403 414)">[3]</text><text font-family="Calibri,Calibri_MSFontService,sans-serif" font-weight="400" font-size="16.0125" transform="matrix(1 0 0 1.00078 784.903 414)">GrokFast</text><path d="M421 577.95C421 573.251 424.806 569.443 429.5 569.443L577.5 569.443C582.194 569.443 586 573.251 586 577.95L586 611.976C586 616.674 582.194 620.482 577.5 620.482L429.5 620.482C424.806 620.482 421 616.674 421 611.976Z" stroke="#4472C4" stroke-width="4" stroke-miterlimit="8" fill="#FFFFFF" fill-rule="evenodd"/><text font-family="Calibri,Calibri_MSFontService,sans-serif" font-weight="400" font-size="16.0125" transform="matrix(1 0 0 1.00078 432.954 592)">Grokking</text><text font-family="Yu Gothic,Yu Gothic_MSFontService,sans-serif" font-weight="400" font-size="16.0125" transform="matrix(1 0 0 1.00078 491.028 592)">を他の</text><text font-family="Yu Gothic,Yu Gothic_MSFontService,sans-serif" font-weight="400" font-size="16.0125" transform="matrix(1 0 0 1.00078 432.954 611)">問題解決に活用</text><path d="M371 349.272C383.415 349.272 395.83 410.693 395.83 472.115 395.83 533.536 408.245 594.958 420.66 594.958" stroke="#4472C4" stroke-width="4" stroke-miterlimit="8" fill="none" fill-rule="evenodd"/><text font-family="Calibri,Calibri_MSFontService,sans-serif" font-weight="400" font-size="16.0125" transform="matrix(1 0 0 1.00078 1039.47 162)">[2]</text><text font-family="Calibri,Calibri_MSFontService,sans-serif" font-weight="400" font-size="16.0125" transform="matrix(1 0 0 1.00078 229.756 324)">[0]</text><text font-family="Calibri,Calibri_MSFontService,sans-serif" font-weight="400" font-size="16.0125" transform="matrix(1 0 0 1.00078 612.368 355)">[5]</text><path d="M812 193.651C812 190.058 814.91 187.146 818.5 187.146L976.5 187.146C980.09 187.146 983 190.058 983 193.651L983 219.671C983 223.263 980.09 226.176 976.5 226.176L818.5 226.176C814.91 226.176 812 223.263 812 219.671Z" stroke="#4472C4" stroke-width="4" stroke-miterlimit="8" fill="#FFFFFF" fill-rule="evenodd"/><text font-family="Calibri,Calibri_MSFontService,sans-serif" font-weight="400" font-size="16.0125" transform="matrix(1 0 0 1.00078 823.743 212)">Grokking</text><text font-family="Yu Gothic,Yu Gothic_MSFontService,sans-serif" font-weight="400" font-size="16.0125" transform="matrix(1 0 0 1.00078 881.816 212)">と堅牢性</text><path d="M773 157.122C782.734 157.122 792.469 169.633 792.469 182.144 792.469 194.655 802.203 207.166 811.937 207.166" stroke="#4472C4" stroke-width="4" stroke-miterlimit="8" fill="none" fill-rule="evenodd"/><text font-family="Calibri,Calibri_MSFontService,sans-serif" font-weight="400" font-size="16.0125" transform="matrix(1 0 0 1.00078 992.533 214)">[6]</text><path d="M651 541.922C651 538.329 653.91 535.416 657.5 535.416L777.5 535.416C781.09 535.416 784 538.329 784 541.922L784 567.941C784 571.534 781.09 574.447 777.5 574.447L657.5 574.447C653.91 574.447 651 571.534 651 567.941Z" stroke="#4472C4" stroke-width="4" stroke-miterlimit="8" fill="#FFFFFF" fill-rule="evenodd"/><text font-family="Yu Gothic,Yu Gothic_MSFontService,sans-serif" font-weight="400" font-size="16.0125" transform="matrix(1 0 0 1.00078 662.033 561)">学習率最適化</text><text font-family="Calibri,Calibri_MSFontService,sans-serif" font-weight="400" font-size="16.0125" transform="matrix(1 0 0 1.00078 794.646 561)">[7]</text><text font-family="Calibri,Calibri_MSFontService,sans-serif" font-weight="400" font-size="16.0125" transform="matrix(1 0 0 1.00078 816.146 561)">Adam</text><text font-family="Calibri,Calibri_MSFontService,sans-serif" font-weight="400" font-size="16.0125" transform="matrix(1 0 0 1.00078 854.312 561)">-</text><text font-family="Calibri,Calibri_MSFontService,sans-serif" font-weight="400" font-size="16.0125" transform="matrix(1 0 0 1.00078 859.146 561)">LR</text><path d="M602 466.363C612.001 466.363 622.002 488.546 622.002 510.728 622.002 532.911 636.142 555.094 650.281 555.094" stroke="#4472C4" stroke-width="4" stroke-miterlimit="8" fill="none" fill-rule="evenodd"/><text fill="#FF0000" font-family="Yu Gothic,Yu Gothic_MSFontService,sans-serif" font-weight="700" font-size="16.0125" transform="matrix(1 0 0 1.00078 415.449 293)">『</text><text fill="#FF0000" font-family="Yu Gothic,Yu Gothic_MSFontService,sans-serif" font-weight="700" font-size="16.0125" transform="matrix(1 0 0 1.00078 431.449 293)">何で？何で？</text><text fill="#FF0000" font-family="Yu Gothic,Yu Gothic_MSFontService,sans-serif" font-weight="700" font-size="16.0125" transform="matrix(1 0 0 1.00078 447.449 312)">何</text><text fill="#FF0000" font-family="Yu Gothic,Yu Gothic_MSFontService,sans-serif" font-weight="700" font-size="16.0125" transform="matrix(1 0 0 1.00078 463.449 312)">で</text><text fill="#FF0000" font-family="Yu Gothic,Yu Gothic_MSFontService,sans-serif" font-weight="700" font-size="16.0125" transform="matrix(1 0 0 1.00078 479.449 312)">？</text><text fill="#FF0000" font-family="Yu Gothic,Yu Gothic_MSFontService,sans-serif" font-weight="700" font-size="16.0125" transform="matrix(1 0 0 1.00078 495.449 312)">･･･</text><text fill="#FF0000" font-family="Yu Gothic,Yu Gothic_MSFontService,sans-serif" font-weight="700" font-size="16.0125" transform="matrix(1 0 0 1.00078 519.449 312)">』</text><text fill="#FF0000" font-family="Yu Gothic,Yu Gothic_MSFontService,sans-serif" font-weight="700" font-size="16.0125" transform="matrix(1 0 0 1.00078 420.308 390)">『</text><text fill="#FF0000" font-family="Yu Gothic,Yu Gothic_MSFontService,sans-serif" font-weight="700" font-size="16.0125" transform="matrix(1 0 0 1.00078 436.308 390)">いつ起こるか判らず</text><text fill="#FF0000" font-family="Yu Gothic,Yu Gothic_MSFontService,sans-serif" font-weight="700" font-size="16.0125" transform="matrix(1 0 0 1.00078 436.308 409)">学習を続けるのは</text><text fill="#FF0000" font-family="Yu Gothic,Yu Gothic_MSFontService,sans-serif" font-weight="700" font-size="16.0125" transform="matrix(1 0 0 1.00078 436.308 428)">辛</text><text fill="#FF0000" font-family="Yu Gothic,Yu Gothic_MSFontService,sans-serif" font-weight="700" font-size="16.0125" transform="matrix(1 0 0 1.00078 452.308 428)">すぎる</text><text fill="#FF0000" font-family="Yu Gothic,Yu Gothic_MSFontService,sans-serif" font-weight="700" font-size="16.0125" transform="matrix(1 0 0 1.00078 500.308 428)">･･</text><text fill="#FF0000" font-family="Yu Gothic,Yu Gothic_MSFontService,sans-serif" font-weight="700" font-size="16.0125" transform="matrix(1 0 0 1.00078 516.308 428)">』</text><text fill="#FF0000" font-family="Yu Gothic,Yu Gothic_MSFontService,sans-serif" font-weight="700" font-size="16.0125" transform="matrix(1 0 0 1.00078 424.342 509)">『</text><text fill="#FF0000" font-family="Yu Gothic,Yu Gothic_MSFontService,sans-serif" font-weight="700" font-size="16.0125" transform="matrix(1 0 0 1.00078 440.342 509)">速く</text><text fill="#FF0000" font-family="Calibri,Calibri_MSFontService,sans-serif" font-weight="700" font-size="16.0125" transform="matrix(1 0 0 1.00078 472.342 509)">Grokking</text><text fill="#FF0000" font-family="Yu Gothic,Yu Gothic_MSFontService,sans-serif" font-weight="700" font-size="16.0125" transform="matrix(1 0 0 1.00078 440.342 528)">させたい</text><text fill="#FF0000" font-family="Yu Gothic,Yu Gothic_MSFontService,sans-serif" font-weight="700" font-size="16.0125" transform="matrix(1 0 0 1.00078 504.342 528)">･･</text><text fill="#FF0000" font-family="Yu Gothic,Yu Gothic_MSFontService,sans-serif" font-weight="700" font-size="16.0125" transform="matrix(1 0 0 1.00078 520.342 528)">』</text><text font-family="Calibri,Calibri_MSFontService,sans-serif" font-weight="400" font-size="16.0125" transform="matrix(1 0 0 1.00078 596.003 607)">[8]</text><text font-family="Calibri,Calibri_MSFontService,sans-serif" font-weight="400" font-size="16.0125" transform="matrix(1 0 0 1.00078 617.503 607)">What</text><text font-family="Calibri,Calibri_MSFontService,sans-serif" font-weight="400" font-size="16.0125" transform="matrix(1 0 0 1.00078 656.523 607)">Grokking</text><text font-family="Calibri,Calibri_MSFontService,sans-serif" font-weight="400" font-size="16.0125" transform="matrix(1 0 0 1.00078 718.263 607)">Teact</text><text font-family="Calibri,Calibri_MSFontService,sans-serif" font-weight="400" font-size="16.0125" transform="matrix(1 0 0 1.00078 756.177 607)">Us</text><text font-family="Yu Gothic,Yu Gothic_MSFontService,sans-serif" font-weight="400" font-size="16.0125" transform="matrix(1 0 0 1.00078 772.843 607)">･･･</text><path d="M622 238.686C622 235.093 624.91 232.181 628.5 232.181L874.5 232.181C878.09 232.181 881 235.093 881 238.686L881 264.706C881 268.298 878.09 271.211 874.5 271.211L628.5 271.211C624.91 271.211 622 268.298 622 264.706Z" stroke="#4472C4" stroke-width="4" stroke-miterlimit="8" fill="#FFFFFF" fill-rule="evenodd"/><text font-family="Yu Gothic,Yu Gothic_MSFontService,sans-serif" font-weight="400" font-size="16.0125" transform="matrix(1 0 0 1.00078 633.754 257)">暗記回路</text><text font-family="Calibri,Calibri_MSFontService,sans-serif" font-weight="400" font-size="16.0125" transform="matrix(1 0 0 1.00078 697.754 257)">/</text><text font-family="Yu Gothic,Yu Gothic_MSFontService,sans-serif" font-weight="400" font-size="16.0125" transform="matrix(1 0 0 1.00078 703.921 257)">汎化回路の優劣逆転</text><path d="M621 290.559C621 287.059 623.836 284.221 627.333 284.221L664.667 284.221C668.164 284.221 671 287.059 671 290.559L671 315.912C671 319.413 668.164 322.251 664.667 322.251L627.333 322.251C623.836 322.251 621 319.413 621 315.912Z" stroke="#4472C4" stroke-width="4" stroke-miterlimit="8" fill="#FFFFFF" fill-rule="evenodd"/><text font-family="Yu Gothic,Yu Gothic_MSFontService,sans-serif" font-weight="400" font-size="16.0125" transform="matrix(1 0 0 1.00078 632.375 309)">･･･</text><path d="M572 251.195C584.588 251.195 597.175 251.282 597.175 251.368 597.175 251.454 609.763 251.54 622.35 251.54" stroke="#4472C4" stroke-width="4" stroke-miterlimit="8" fill="none" fill-rule="evenodd"/><path d="M572 251.195C584.243 251.195 596.485 264.173 596.485 277.15 596.485 290.128 608.728 303.105 620.971 303.105" stroke="#4472C4" stroke-width="4" stroke-miterlimit="8" fill="none" fill-rule="evenodd"/><path d="M23 28.5225C23 24.9297 25.9103 22.0171 29.5003 22.0171L321.5 22.0171C325.09 22.0171 328 24.9297 328 28.5225L328 54.5421C328 58.1349 325.09 61.0475 321.5 61.0475L29.5003 61.0475C25.9103 61.0475 23 58.1349 23 54.5421Z" stroke="#4472C4" stroke-width="4" stroke-miterlimit="8" fill="#FFFFFF" fill-rule="evenodd"/><text font-family="Calibri,Calibri_MSFontService,sans-serif" font-weight="400" font-size="16.0125" transform="matrix(1 0 0 1.00078 34.2121 47)">Memorization to Generalization</text><text font-family="Yu Gothic,Yu Gothic_MSFontService,sans-serif" font-weight="400" font-size="16.0125" transform="matrix(1 0 0 1.00078 244.572 47)">研究</text><path d="M229.669 349.827C202.334 349.827 175 205.437 175 61.0475" stroke="#4472C4" stroke-width="4" stroke-miterlimit="8" fill="none" fill-rule="evenodd"/><path d="M230 101.579C230 97.9864 232.91 95.0739 236.5 95.0739L272.5 95.0739C276.09 95.0739 279 97.9864 279 101.579L279 127.599C279 131.192 276.09 134.104 272.5 134.104L236.5 134.104C232.91 134.104 230 131.192 230 127.599Z" stroke="#4472C4" stroke-width="4" stroke-miterlimit="8" fill="#FFFFFF" fill-rule="evenodd"/><text font-family="Yu Gothic,Yu Gothic_MSFontService,sans-serif" font-weight="400" font-size="16.0125" transform="matrix(1 0 0 1.00078 241.298 120)">･･･</text><path d="M229 166.63C229 163.037 231.91 160.125 235.5 160.125L272.5 160.125C276.09 160.125 279 163.037 279 166.63L279 192.65C279 196.242 276.09 199.155 272.5 199.155L235.5 199.155C231.91 199.155 229 196.242 229 192.65Z" stroke="#4472C4" stroke-width="4" stroke-miterlimit="8" fill="#FFFFFF" fill-rule="evenodd"/><text font-family="Yu Gothic,Yu Gothic_MSFontService,sans-serif" font-weight="400" font-size="16.0125" transform="matrix(1 0 0 1.00078 240.608 185)">･･･</text><path d="M229.669 114.852C202.334 114.852 175 87.9497 175 61.0475" stroke="#4472C4" stroke-width="4" stroke-miterlimit="8" fill="none" fill-rule="evenodd"/><path d="M228.979 180.021C201.989 180.021 175 120.534 175 61.0475" stroke="#4472C4" stroke-width="4" stroke-miterlimit="8" fill="none" fill-rule="evenodd"/><text fill="#0A0A0A" font-family="Yu Gothic,Yu Gothic_MSFontService,sans-serif" font-weight="400" font-size="16.0125" transform="matrix(1 0 0 1.00078 195.782 237)">過学習状態が続いた後に</text><text fill="#0A0A0A" font-family="Yu Gothic,Yu Gothic_MSFontService,sans-serif" font-weight="700" font-size="16.0125" transform="matrix(1 0 0 1.00078 199.449 256)">突然かつ劇的に</text><text fill="#0A0A0A" font-family="Yu Gothic,Yu Gothic_MSFontService,sans-serif" font-weight="700" font-size="16.0125" transform="matrix(1 0 0 1.00078 203.115 275)">汎化性能が向上する</text><text fill="#0A0A0A" font-family="Yu Gothic,Yu Gothic_MSFontService,sans-serif" font-weight="400" font-size="16.0125" transform="matrix(1 0 0 1.00078 206.782 294)">現象</text></g></svg>