<svg width="822" height="491" xmlns="http://www.w3.org/2000/svg" xmlns:xlink="http://www.w3.org/1999/xlink" overflow="hidden"><g><rect x="0" y="0" width="822" height="490.667" fill="#FFFFFF"/><path d="M290 143.403C290 140.919 292.015 138.906 294.5 138.906L403.5 138.906C405.985 138.906 408 140.919 408 143.403L408 161.39C408 163.874 405.985 165.887 403.5 165.887L294.5 165.887C292.015 165.887 290 163.874 290 161.39Z" stroke="#4472C4" stroke-width="2" stroke-miterlimit="8" fill="#FFFFFF" fill-rule="evenodd"/><text font-family="Yu Gothic,Yu Gothic_MSFontService,sans-serif" font-weight="700" font-size="14.6567" transform="matrix(1 0 0 0.999322 301.275 157)">メカニズム理解</text><path d="M141 223.182C141 220.79 142.94 218.851 145.333 218.851L247.667 218.851C250.06 218.851 252 220.79 252 223.182L252 240.503C252 242.895 250.06 244.834 247.667 244.834L145.333 244.834C142.94 244.834 141 242.895 141 240.503Z" stroke="#4472C4" stroke-width="2" stroke-miterlimit="8" fill="#FFFFFF" fill-rule="evenodd"/><text font-family="Calibri,Calibri_MSFontService,sans-serif" font-weight="700" font-size="14.6567" transform="matrix(1 0 0 0.999322 152.092 237)">Grokking</text><text font-family="Yu Gothic,Yu Gothic_MSFontService,sans-serif" font-weight="700" font-size="14.6567" transform="matrix(1 0 0 0.999322 206.926 237)">研究</text><path d="M290 211.19C290 208.798 291.94 206.86 294.333 206.86L427.667 206.86C430.06 206.86 432 208.798 432 211.19L432 228.511C432 230.903 430.06 232.842 427.667 232.842L294.333 232.842C291.94 232.842 290 230.903 290 228.511Z" stroke="#4472C4" stroke-width="2" stroke-miterlimit="8" fill="#FFFFFF" fill-rule="evenodd"/><text font-family="Yu Gothic,Yu Gothic_MSFontService,sans-serif" font-weight="700" font-size="14.6567" transform="matrix(1 0 0 0.999322 301.275 225)">汎化進捗の把握方法</text><path d="M290 298.298C290 295.814 292.015 293.801 294.5 293.801L427.5 293.801C429.985 293.801 432 295.814 432 298.298L432 316.285C432 318.769 429.985 320.782 427.5 320.782L294.5 320.782C292.015 320.782 290 318.769 290 316.285Z" stroke="#4472C4" stroke-width="2" stroke-miterlimit="8" fill="#FFFFFF" fill-rule="evenodd"/><text font-family="Calibri,Calibri_MSFontService,sans-serif" font-weight="700" font-size="14.6567" transform="matrix(1 0 0 0.999322 301.275 313)">Grokking</text><text font-family="Yu Gothic,Yu Gothic_MSFontService,sans-serif" font-weight="700" font-size="14.6567" transform="matrix(1 0 0 0.999322 356.109 313)">高速化法</text><path d="M0 0C9.6876 0 19.3752 19.9713 19.3752 39.9426 19.3752 59.914 29.0628 79.8853 38.7504 79.8853" stroke="#4472C4" stroke-width="1.99864" stroke-miterlimit="8" fill="none" fill-rule="evenodd" transform="matrix(1.00068 0 0 -1 252 231.782)"/><path d="M0 0C9.68757 0 19.3751 0.119892 19.3751 0.239785 19.3751 0.359677 29.0627 0.479569 38.7503 0.479569" stroke="#4472C4" stroke-width="1.99864" stroke-miterlimit="8" fill="none" fill-rule="evenodd" transform="matrix(1.00068 0 0 -1 252 232.322)"/><path d="M252 231.843C264.852 231.843 277.704 250.801 277.704 269.76 277.704 288.719 284.241 307.678 290.777 307.678" stroke="#4472C4" stroke-width="2" stroke-miterlimit="8" fill="none" fill-rule="evenodd"/><path d="M448 77.4475C448 74.9639 450.015 72.9505 452.5 72.9505L561.5 72.9505C563.985 72.9505 566 74.9639 566 77.4475L566 95.4351C566 97.9188 563.985 99.9322 561.5 99.9322L452.5 99.9322C450.015 99.9322 448 97.9188 448 95.4351Z" stroke="#4472C4" stroke-width="2" stroke-miterlimit="8" fill="#FFFFFF" fill-rule="evenodd"/><text font-family="Yu Gothic,Yu Gothic_MSFontService,sans-serif" font-weight="700" font-size="14.6567" transform="matrix(1 0 0 0.999322 458.536 91)">他現象との統合</text><path d="M0 0C9.82212 0 19.6442 16.426 19.6442 32.852 19.6442 49.278 29.4664 65.7041 39.2885 65.7041" stroke="#4472C4" stroke-width="1.99864" stroke-miterlimit="8" fill="none" fill-rule="evenodd" transform="matrix(1.00068 0 0 -1 408 151.646)"/><path d="M596 43.3041C596 40.9124 597.94 38.9735 600.333 38.9735L761.667 38.9735C764.06 38.9735 766 40.9124 766 43.3041L766 60.6254C766 63.017 764.06 64.9559 761.667 64.9559L600.333 64.9559C597.94 64.9559 596 63.017 596 60.6254Z" stroke="#4472C4" stroke-width="2" stroke-miterlimit="8" fill="#FFFFFF" fill-rule="evenodd"/><text font-family="Calibri,Calibri_MSFontService,sans-serif" font-weight="700" font-size="14.6567" transform="matrix(1 0 0 0.999322 606.911 57)">Grokking</text><text font-family="Yu Gothic,Yu Gothic_MSFontService,sans-serif" font-weight="700" font-size="14.6567" transform="matrix(1 0 0 0.999322 661.745 57)">と宝くじ仮説</text><path d="M596 77.4475C596 74.9639 598.015 72.9505 600.5 72.9505L761.5 72.9505C763.985 72.9505 766 74.9639 766 77.4475L766 95.4352C766 97.9188 763.985 99.9322 761.5 99.9322L600.5 99.9322C598.015 99.9322 596 97.9188 596 95.4352Z" stroke="#4472C4" stroke-width="2" stroke-miterlimit="8" fill="#FFFFFF" fill-rule="evenodd"/><text font-family="Calibri,Calibri_MSFontService,sans-serif" font-weight="700" font-size="14.6567" transform="matrix(1 0 0 0.999322 606.911 91)">Grokking</text><text font-family="Yu Gothic,Yu Gothic_MSFontService,sans-serif" font-weight="700" font-size="14.6567" transform="matrix(1 0 0 0.999322 661.745 91)">と二重降下</text><path d="M447 110.425C447 107.941 449.015 105.928 451.5 105.928L569.5 105.928C571.985 105.928 574 107.941 574 110.425L574 128.413C574 130.896 571.985 132.91 569.5 132.91L451.5 132.91C449.015 132.91 447 130.896 447 128.413Z" stroke="#4472C4" stroke-width="2" stroke-miterlimit="8" fill="#FFFFFF" fill-rule="evenodd"/><text font-family="Calibri,Calibri_MSFontService,sans-serif" font-weight="700" font-size="14.6567" transform="matrix(1 0 0 0.999322 457.459 124)">Softmax</text><text font-family="Calibri,Calibri_MSFontService,sans-serif" font-weight="700" font-size="14.6567" transform="matrix(1 0 0 0.999322 511.293 124)">Collapse</text><path d="M0 0C9.55302 0 19.106 8.18305 19.106 16.3661 19.106 24.5491 28.659 32.7321 38.2121 32.7321" stroke="#4472C4" stroke-width="1.99864" stroke-miterlimit="8" fill="none" fill-rule="evenodd" transform="matrix(1.00068 0 0 -1 408 151.651)"/><path d="M0 0C7.60207 0 15.2041 8.57211 15.2041 17.1442 15.2041 25.7163 22.8062 34.2884 30.4082 34.2884" stroke="#4472C4" stroke-width="1.99864" stroke-miterlimit="8" fill="none" fill-rule="evenodd" transform="matrix(1.00068 0 0 -1 566 86.2532)"/><path d="M0 0C7.60208 0 15.2042 0.000104916 15.2042 0.000314747 15.2042 0.000419663 22.8061 0.000524578 30.4082 0.000524578" stroke="#4472C4" stroke-width="1.99864" stroke-miterlimit="8" fill="none" fill-rule="evenodd" transform="matrix(1.00068 0 0 -1 566 85.9422)"/><path d="M471 265.32C471 262.836 473.015 260.823 475.5 260.823L545.5 260.823C547.985 260.823 550 262.836 550 265.32L550 283.308C550 285.791 547.985 287.805 545.5 287.805L475.5 287.805C473.015 287.805 471 285.791 471 283.308Z" stroke="#4472C4" stroke-width="2" stroke-miterlimit="8" fill="#FFFFFF" fill-rule="evenodd"/><text font-family="Yu Gothic,Yu Gothic_MSFontService,sans-serif" font-weight="700" font-size="14.6567" transform="matrix(1 0 0 0.999322 481.695 279)">勾配増幅</text><path d="M471 298.298C471 295.814 473.015 293.801 475.5 293.801L596.5 293.801C598.985 293.801 601 295.814 601 298.298L601 316.285C601 318.769 598.985 320.782 596.5 320.782L475.5 320.782C473.015 320.782 471 318.769 471 316.285Z" stroke="#4472C4" stroke-width="2" stroke-miterlimit="8" fill="#FFFFFF" fill-rule="evenodd"/><text font-family="Yu Gothic,Yu Gothic_MSFontService,sans-serif" font-weight="700" font-size="14.6567" transform="matrix(1 0 0 0.999322 481.695 313)">宝くじ仮説の手法</text><path d="M471 332.274C471 329.791 473.015 327.777 475.5 327.777L570.5 327.777C572.985 327.777 575 329.791 575 332.274L575 350.262C575 352.746 572.985 354.759 570.5 354.759L475.5 354.759C473.015 354.759 471 352.746 471 350.262Z" stroke="#4472C4" stroke-width="2" stroke-miterlimit="8" fill="#FFFFFF" fill-rule="evenodd"/><text font-family="Yu Gothic,Yu Gothic_MSFontService,sans-serif" font-weight="700" font-size="14.6567" transform="matrix(1 0 0 0.999322 481.695 346)">埋め込み転移</text><path d="M0 0C9.68757 0 19.3751 8.39882 19.3751 16.7976 19.3751 25.1964 29.0627 33.5952 38.7503 33.5952" stroke="#4472C4" stroke-width="1.99864" stroke-miterlimit="8" fill="none" fill-rule="evenodd" transform="matrix(1.00068 0 0 -1 432 307.409)"/><path d="M0 0C9.6876 0 19.3752 0.0067146 19.3752 0.0134292 19.3752 0.0200389 29.0627 0.0267535 38.7503 0.0267535" stroke="#4472C4" stroke-width="1.99864" stroke-miterlimit="8" fill="none" fill-rule="evenodd" transform="matrix(1.00068 0 0 -1 432 307.818)"/><path d="M432 307.791C441.694 307.791 451.388 316.176 451.388 324.562 451.388 332.947 461.082 341.333 470.777 341.333" stroke="#4472C4" stroke-width="2" stroke-miterlimit="8" fill="none" fill-rule="evenodd"/><text font-family="Calibri,Calibri_MSFontService,sans-serif" font-weight="700" font-size="14.6567" transform="matrix(1 0 0 0.999322 770.465 57)">[1]</text><text font-family="Calibri,Calibri_MSFontService,sans-serif" font-weight="700" font-size="14.6567" transform="matrix(1 0 0 0.999322 606.927 313)">[1]</text><text font-family="Calibri,Calibri_MSFontService,sans-serif" font-weight="700" font-size="14.6567" transform="matrix(1 0 0 0.999322 579.274 346)">[4]GrokTransfer</text><text font-family="Calibri,Calibri_MSFontService,sans-serif" font-weight="700" font-size="14.6567" transform="matrix(1 0 0 0.999322 556.141 279)">[3]</text><text font-family="Calibri,Calibri_MSFontService,sans-serif" font-weight="700" font-size="14.6567" transform="matrix(1 0 0 0.999322 576.641 279)">GrokFast</text><path d="M293 385.572C293 382.352 295.612 379.742 298.833 379.742L416.167 379.742C419.388 379.742 422 382.352 422 385.572L422 408.889C422 412.108 419.388 414.718 416.167 414.718L298.833 414.718C295.612 414.718 293 412.108 293 408.889Z" stroke="#4472C4" stroke-width="2" stroke-miterlimit="8" fill="#FFFFFF" fill-rule="evenodd"/><text font-family="Calibri,Calibri_MSFontService,sans-serif" font-weight="700" font-size="14.6567" transform="matrix(1 0 0 0.999322 304.22 394)">Grokking</text><text font-family="Yu Gothic,Yu Gothic_MSFontService,sans-serif" font-weight="700" font-size="14.6567" transform="matrix(1 0 0 0.999322 359.053 394)">を他の</text><text font-family="Yu Gothic,Yu Gothic_MSFontService,sans-serif" font-weight="700" font-size="14.6567" transform="matrix(1 0 0 0.999322 304.22 410)">問題解決に活用</text><path d="M252 231.843C262.326 231.843 272.652 273.223 272.652 314.603 272.652 355.983 282.977 397.363 293.303 397.363" stroke="#4472C4" stroke-width="2" stroke-miterlimit="8" fill="none" fill-rule="evenodd"/><text font-family="Calibri,Calibri_MSFontService,sans-serif" font-weight="700" font-size="14.6567" transform="matrix(1 0 0 0.999322 770.439 92)">[2]</text><text font-family="Calibri,Calibri_MSFontService,sans-serif" font-weight="700" font-size="14.6567" transform="matrix(1 0 0 0.999322 141.346 215)">[0]</text><text font-family="Calibri,Calibri_MSFontService,sans-serif" font-weight="700" font-size="14.6567" transform="matrix(1 0 0 0.999322 437.032 226)">[5]</text><path d="M596 112.424C596 109.94 598.015 107.927 600.5 107.927L724.5 107.927C726.985 107.927 729 109.94 729 112.424L729 130.411C729 132.895 726.985 134.908 724.5 134.908L600.5 134.908C598.015 134.908 596 132.895 596 130.411Z" stroke="#4472C4" stroke-width="2" stroke-miterlimit="8" fill="#FFFFFF" fill-rule="evenodd"/><text font-family="Calibri,Calibri_MSFontService,sans-serif" font-weight="700" font-size="14.6567" transform="matrix(1 0 0 0.999322 606.886 126)">Grokking</text><text font-family="Yu Gothic,Yu Gothic_MSFontService,sans-serif" font-weight="700" font-size="14.6567" transform="matrix(1 0 0 0.999322 661.719 126)">と堅牢性</text><path d="M566 85.9417C573.601 85.9417 581.202 94.6334 581.202 103.325 581.202 112.017 588.803 120.709 596.404 120.709" stroke="#4472C4" stroke-width="2" stroke-miterlimit="8" fill="none" fill-rule="evenodd"/><text font-family="Calibri,Calibri_MSFontService,sans-serif" font-weight="700" font-size="14.6567" transform="matrix(1 0 0 0.999322 733.791 128)">[6]</text><path d="M470 368.25C470 365.766 472.015 363.753 474.5 363.753L569.5 363.753C571.985 363.753 574 365.766 574 368.25L574 386.238C574 388.721 571.985 390.735 569.5 390.735L474.5 390.735C472.015 390.735 470 388.721 470 386.238Z" stroke="#4472C4" stroke-width="2" stroke-miterlimit="8" fill="#FFFFFF" fill-rule="evenodd"/><text font-family="Yu Gothic,Yu Gothic_MSFontService,sans-serif" font-weight="700" font-size="14.6567" transform="matrix(1 0 0 0.999322 480.618 382)">学習率最適化</text><text font-family="Calibri,Calibri_MSFontService,sans-serif" font-weight="700" font-size="14.6567" transform="matrix(1 0 0 0.999322 578.642 381)">[7]</text><text font-family="Calibri,Calibri_MSFontService,sans-serif" font-weight="700" font-size="14.6567" transform="matrix(1 0 0 0.999322 599.142 381)">Adam</text><text font-family="Calibri,Calibri_MSFontService,sans-serif" font-weight="700" font-size="14.6567" transform="matrix(1 0 0 0.999322 634.975 381)">-</text><text font-family="Calibri,Calibri_MSFontService,sans-serif" font-weight="700" font-size="14.6567" transform="matrix(1 0 0 0.999322 639.475 381)">LR</text><path d="M432 307.791C441.425 307.791 450.85 325.084 450.85 342.377 450.85 359.67 460.275 376.963 469.7 376.963" stroke="#4472C4" stroke-width="2" stroke-miterlimit="8" fill="none" fill-rule="evenodd"/><text fill="#FF0000" font-family="Yu Gothic,Yu Gothic_MSFontService,sans-serif" font-weight="700" font-size="14.6567" transform="matrix(1 0 0 0.999322 288.236 186)">『</text><text fill="#FF0000" font-family="Yu Gothic,Yu Gothic_MSFontService,sans-serif" font-weight="700" font-size="14.6567" transform="matrix(1 0 0 0.999322 302.903 186)">何で？何で？</text><text fill="#FF0000" font-family="Yu Gothic,Yu Gothic_MSFontService,sans-serif" font-weight="700" font-size="14.6567" transform="matrix(1 0 0 0.999322 317.569 203)">何</text><text fill="#FF0000" font-family="Yu Gothic,Yu Gothic_MSFontService,sans-serif" font-weight="700" font-size="14.6567" transform="matrix(1 0 0 0.999322 332.236 203)">で</text><text fill="#FF0000" font-family="Yu Gothic,Yu Gothic_MSFontService,sans-serif" font-weight="700" font-size="14.6567" transform="matrix(1 0 0 0.999322 346.903 203)">？</text><text fill="#FF0000" font-family="Yu Gothic,Yu Gothic_MSFontService,sans-serif" font-weight="700" font-size="14.6567" transform="matrix(1 0 0 0.999322 361.569 203)">･･･</text><text fill="#FF0000" font-family="Yu Gothic,Yu Gothic_MSFontService,sans-serif" font-weight="700" font-size="14.6567" transform="matrix(1 0 0 0.999322 383.569 203)">』</text><text fill="#FF0000" font-family="Yu Gothic,Yu Gothic_MSFontService,sans-serif" font-weight="700" font-size="14.6567" transform="matrix(1 0 0 0.999322 292.031 253)">『</text><text fill="#FF0000" font-family="Yu Gothic,Yu Gothic_MSFontService,sans-serif" font-weight="700" font-size="14.6567" transform="matrix(1 0 0 0.999322 306.697 253)">いつ起こるか判らず</text><text fill="#FF0000" font-family="Yu Gothic,Yu Gothic_MSFontService,sans-serif" font-weight="700" font-size="14.6567" transform="matrix(1 0 0 0.999322 306.697 270)">学習を続けるのは</text><text fill="#FF0000" font-family="Yu Gothic,Yu Gothic_MSFontService,sans-serif" font-weight="700" font-size="14.6567" transform="matrix(1 0 0 0.999322 306.697 288)">辛</text><text fill="#FF0000" font-family="Yu Gothic,Yu Gothic_MSFontService,sans-serif" font-weight="700" font-size="14.6567" transform="matrix(1 0 0 0.999322 321.364 288)">すぎる</text><text fill="#FF0000" font-family="Yu Gothic,Yu Gothic_MSFontService,sans-serif" font-weight="700" font-size="14.6567" transform="matrix(1 0 0 0.999322 365.364 288)">･･</text><text fill="#FF0000" font-family="Yu Gothic,Yu Gothic_MSFontService,sans-serif" font-weight="700" font-size="14.6567" transform="matrix(1 0 0 0.999322 380.031 288)">』</text><text fill="#FF0000" font-family="Yu Gothic,Yu Gothic_MSFontService,sans-serif" font-weight="700" font-size="14.6567" transform="matrix(1 0 0 0.999322 295.18 341)">『</text><text fill="#FF0000" font-family="Yu Gothic,Yu Gothic_MSFontService,sans-serif" font-weight="700" font-size="14.6567" transform="matrix(1 0 0 0.999322 309.847 341)">速く</text><text fill="#FF0000" font-family="Calibri,Calibri_MSFontService,sans-serif" font-weight="700" font-size="14.6567" transform="matrix(1 0 0 0.999322 339.18 341)">Grokking</text><text fill="#FF0000" font-family="Yu Gothic,Yu Gothic_MSFontService,sans-serif" font-weight="700" font-size="14.6567" transform="matrix(1 0 0 0.999322 309.847 358)">させたい</text><text fill="#FF0000" font-family="Yu Gothic,Yu Gothic_MSFontService,sans-serif" font-weight="700" font-size="14.6567" transform="matrix(1 0 0 0.999322 368.514 358)">･･</text><text fill="#FF0000" font-family="Yu Gothic,Yu Gothic_MSFontService,sans-serif" font-weight="700" font-size="14.6567" transform="matrix(1 0 0 0.999322 383.18 358)">』</text><path d="M448 143.403C448 140.919 450.015 138.906 452.5 138.906L655.5 138.906C657.985 138.906 660 140.919 660 143.403L660 161.39C660 163.874 657.985 165.887 655.5 165.887L452.5 165.887C450.015 165.887 448 163.874 448 161.39Z" stroke="#4472C4" stroke-width="2" stroke-miterlimit="8" fill="#FFFFFF" fill-rule="evenodd"/><text font-family="Yu Gothic,Yu Gothic_MSFontService,sans-serif" font-weight="700" font-size="14.6567" transform="matrix(1 0 0 0.999322 458.536 157)">暗記回路</text><text font-family="Calibri,Calibri_MSFontService,sans-serif" font-weight="700" font-size="14.6567" transform="matrix(1 0 0 0.999322 517.203 157)">/</text><text font-family="Yu Gothic,Yu Gothic_MSFontService,sans-serif" font-weight="700" font-size="14.6567" transform="matrix(1 0 0 0.999322 523.536 157)">汎化回路の優劣逆転</text><path d="M447 179.378C447 176.895 449.015 174.881 451.5 174.881L480.5 174.881C482.985 174.881 485 176.895 485 179.378L485 197.366C485 199.85 482.985 201.863 480.5 201.863L451.5 201.863C449.015 201.863 447 199.85 447 197.366Z" stroke="#4472C4" stroke-width="2" stroke-miterlimit="8" fill="#FFFFFF" fill-rule="evenodd"/><text font-family="Yu Gothic,Yu Gothic_MSFontService,sans-serif" font-weight="700" font-size="14.6567" transform="matrix(1 0 0 0.999322 457.459 193)">･･･</text><path d="M408 151.897C417.829 151.897 427.658 151.957 427.658 152.017 427.658 152.077 437.486 152.137 447.315 152.137" stroke="#4472C4" stroke-width="2" stroke-miterlimit="8" fill="none" fill-rule="evenodd"/><path d="M408 151.897C417.56 151.897 427.119 160.913 427.119 169.929 427.119 178.945 436.678 187.96 446.238 187.96" stroke="#4472C4" stroke-width="2" stroke-miterlimit="8" fill="none" fill-rule="evenodd"/><path d="M8 12.4917C8 10.008 10.0148 7.99457 12.5001 7.99457L175.5 7.99457C177.985 7.99457 180 10.008 180 12.4917L180 30.4791C180 32.9628 177.985 34.9763 175.5 34.9763L12.5001 34.9763C10.0148 34.9763 8 32.9628 8 30.4791Z" stroke="#4472C4" stroke-width="2" stroke-miterlimit="8" fill="#FFFFFF" fill-rule="evenodd"/><text font-family="Yu Gothic,Yu Gothic_MSFontService,sans-serif" font-weight="700" font-size="14.6567" transform="matrix(1 0 0 0.999322 18.5925 27)">『</text><text font-family="Yu Gothic,Yu Gothic_MSFontService,sans-serif" font-weight="700" font-size="14.6567" transform="matrix(1 0 0 0.999322 33.2592 27)">暗記から汎化</text><text font-family="Yu Gothic,Yu Gothic_MSFontService,sans-serif" font-weight="700" font-size="14.6567" transform="matrix(1 0 0 0.999322 121.259 27)">』</text><text font-family="Yu Gothic,Yu Gothic_MSFontService,sans-serif" font-weight="700" font-size="14.6567" transform="matrix(1 0 0 0.999322 139.259 27)">研究</text><path d="M141.106 232.002C117.553 232.002 94 133.489 94 34.9762" stroke="#4472C4" stroke-width="2" stroke-miterlimit="8" fill="none" fill-rule="evenodd"/><path d="M151 56.4618C151 53.9781 153.015 51.9647 155.5 51.9647L185.5 51.9647C187.985 51.9647 190 53.9781 190 56.4618L190 74.4494C190 76.933 187.985 78.9464 185.5 78.9464L155.5 78.9464C153.015 78.9464 151 76.933 151 74.4494Z" stroke="#4472C4" stroke-width="2" stroke-miterlimit="8" fill="#FFFFFF" fill-rule="evenodd"/><text font-family="Yu Gothic,Yu Gothic_MSFontService,sans-serif" font-weight="700" font-size="14.6567" transform="matrix(1 0 0 0.999322 162.198 71)">･･･</text><path d="M151 102.431C151 99.9469 153.015 97.9335 155.5 97.9335L185.5 97.9335C187.985 97.9335 190 99.9469 190 102.431L190 120.418C190 122.902 187.985 124.915 185.5 124.915L155.5 124.915C153.015 124.915 151 122.902 151 120.418Z" stroke="#4472C4" stroke-width="2" stroke-miterlimit="8" fill="#FFFFFF" fill-rule="evenodd"/><text font-family="Yu Gothic,Yu Gothic_MSFontService,sans-serif" font-weight="700" font-size="14.6567" transform="matrix(1 0 0 0.999322 161.659 116)">･･･</text><path d="M151.212 66.0267C122.606 66.0267 94 50.5014 94 34.9763" stroke="#4472C4" stroke-width="2" stroke-miterlimit="8" fill="none" fill-rule="evenodd"/><path d="M150.673 111.302C122.336 111.302 94 73.139 94 34.9762" stroke="#4472C4" stroke-width="2" stroke-miterlimit="8" fill="none" fill-rule="evenodd"/><text fill="#0A0A0A" font-family="Yu Gothic,Yu Gothic_MSFontService,sans-serif" font-weight="700" font-size="14.6567" transform="matrix(1 0 0 0.999322 109.004 146)">長い過学習状態の後</text><text fill="#FF0000" font-family="Yu Gothic,Yu Gothic_MSFontService,sans-serif" font-weight="700" font-size="14.6567" transform="matrix(1 0 0 0.999322 112.337 163)">突然かつ劇的に</text><text fill="#FF0000" font-family="Yu Gothic,Yu Gothic_MSFontService,sans-serif" font-weight="700" font-size="14.6567" transform="matrix(1 0 0 0.999322 115.671 181)">汎化性能が向上する</text><text fill="#0A0A0A" font-family="Yu Gothic,Yu Gothic_MSFontService,sans-serif" font-weight="700" font-size="14.6567" transform="matrix(1 0 0 0.999322 119.004 198)">現象</text><path d="M471 236.506C471 234.482 472.642 232.842 474.667 232.842L605.333 232.842C607.358 232.842 609 234.482 609 236.506L609 251.163C609 253.186 607.358 254.827 605.333 254.827L474.667 254.827C472.642 254.827 471 253.186 471 251.163Z" stroke="#4472C4" stroke-width="2" stroke-miterlimit="8" fill="#FFFFFF" fill-rule="evenodd"/><text font-family="Calibri,Calibri_MSFontService,sans-serif" font-weight="700" font-size="14.6567" transform="matrix(1 0 0 0.999322 481.3 249)">StableMax,</text><text font-family="MS Gothic,MS Gothic_MSFontService,sans-serif" font-weight="700" font-size="14.6567" transform="matrix(1 0 0 0.999322 553.3 249)">┴</text><text font-family="Calibri,Calibri_MSFontService,sans-serif" font-weight="700" font-size="14.6567" transform="matrix(1 0 0 0.999322 567.967 249)">GRAD</text><path d="M0 0C9.64761 0 19.2952 15.9922 19.2952 31.9845 19.2952 47.9767 28.9428 63.969 38.5904 63.969" stroke="#4472C4" stroke-width="1.99864" stroke-miterlimit="8" fill="none" fill-rule="evenodd" transform="matrix(1.00068 0 0 -1 432 307.803)"/><path d="M471 404.226C471 401.742 473.015 399.729 475.5 399.729L668.5 399.729C670.985 399.729 673 401.742 673 404.226L673 422.213C673 424.697 670.985 426.71 668.5 426.71L475.5 426.71C473.015 426.71 471 424.697 471 422.213Z" stroke="#4472C4" stroke-width="2" stroke-miterlimit="8" fill="#FFFFFF" fill-rule="evenodd"/><text font-family="Yu Gothic,Yu Gothic_MSFontService,sans-serif" font-weight="700" font-size="14.6567" transform="matrix(1 0 0 0.999322 481.607 418)">継続学習の</text><text font-family="Calibri,Calibri_MSFontService,sans-serif" font-weight="700" font-size="14.6567" transform="matrix(1 0 0 0.999322 554.94 418)">Primacy</text><text font-family="Calibri,Calibri_MSFontService,sans-serif" font-weight="700" font-size="14.6567" transform="matrix(1 0 0 0.999322 607.274 418)">BIAS</text><text font-family="Yu Gothic,Yu Gothic_MSFontService,sans-serif" font-weight="700" font-size="14.6567" transform="matrix(1 0 0 0.999322 635.107 418)">対処</text><path d="M470 438.036C470 435.644 471.94 433.706 474.333 433.706L667.667 433.706C670.06 433.706 672 435.644 672 438.036L672 455.357C672 457.749 670.06 459.688 667.667 459.688L474.333 459.688C471.94 459.688 470 457.749 470 455.357Z" stroke="#4472C4" stroke-width="2" stroke-miterlimit="8" fill="#FFFFFF" fill-rule="evenodd"/><text font-family="Yu Gothic,Yu Gothic_MSFontService,sans-serif" font-weight="700" font-size="14.6567" transform="matrix(1 0 0 0.999322 480.637 452)">汎化</text><text font-family="Yu Gothic,Yu Gothic_MSFontService,sans-serif" font-weight="700" font-size="14.6567" transform="matrix(1 0 0 0.999322 509.97 452)">現象研究のプローブ</text><path d="M422 397.73C433.895 397.73 445.79 410.059 445.79 422.388 445.79 434.717 457.685 447.046 469.579 447.046" stroke="#4472C4" stroke-width="2" stroke-miterlimit="8" fill="none" fill-rule="evenodd"/><path d="M422 397.73C434.137 397.73 446.275 401.667 446.275 405.604 446.275 409.541 458.412 413.478 470.549 413.478" stroke="#4472C4" stroke-width="2" stroke-miterlimit="8" fill="none" fill-rule="evenodd"/><text font-family="Calibri,Calibri_MSFontService,sans-serif" font-weight="700" font-size="14.6567" transform="matrix(1 0 0 0.999322 676.984 416)">[</text><text font-family="Calibri,Calibri_MSFontService,sans-serif" font-weight="700" font-size="14.6567" transform="matrix(1 0 0 0.999322 681.818 416)">8</text><text font-family="Calibri,Calibri_MSFontService,sans-serif" font-weight="700" font-size="14.6567" transform="matrix(1 0 0 0.999322 689.318 416)">]</text></g></svg>