<svg width="822" height="491" xmlns="http://www.w3.org/2000/svg" xmlns:xlink="http://www.w3.org/1999/xlink" overflow="hidden"><g><rect x="0" y="0" width="822" height="490.667" fill="#FFFFFF"/><path d="M300 158.393C300 155.909 302.015 153.896 304.5 153.896L413.5 153.896C415.985 153.896 418 155.909 418 158.393L418 176.38C418 178.864 415.985 180.877 413.5 180.877L304.5 180.877C302.015 180.877 300 178.864 300 176.38Z" stroke="#4472C4" stroke-width="2" stroke-miterlimit="8" fill="#FFFFFF" fill-rule="evenodd"/><text font-family="Yu Gothic,Yu Gothic_MSFontService,sans-serif" font-weight="700" font-size="14.6567" transform="matrix(1 0 0 0.999322 311.381 172)">メカニズム理解</text><path d="M151 238.338C151 235.855 153.015 233.841 155.5 233.841L257.5 233.841C259.985 233.841 262 235.855 262 238.338L262 256.326C262 258.81 259.985 260.823 257.5 260.823L155.5 260.823C153.015 260.823 151 258.81 151 256.326Z" stroke="#4472C4" stroke-width="2" stroke-miterlimit="8" fill="#FFFFFF" fill-rule="evenodd"/><text font-family="Calibri,Calibri_MSFontService,sans-serif" font-weight="700" font-size="14.6567" transform="matrix(1 0 0 0.999322 162.198 252)">Grokking</text><text font-family="Yu Gothic,Yu Gothic_MSFontService,sans-serif" font-weight="700" font-size="14.6567" transform="matrix(1 0 0 0.999322 217.031 252)">研究</text><path d="M300 226.346C300 223.863 302.015 221.849 304.5 221.849L437.5 221.849C439.985 221.849 442 223.863 442 226.346L442 244.334C442 246.818 439.985 248.831 437.5 248.831L304.5 248.831C302.015 248.831 300 246.818 300 244.334Z" stroke="#4472C4" stroke-width="2" stroke-miterlimit="8" fill="#FFFFFF" fill-rule="evenodd"/><text font-family="Yu Gothic,Yu Gothic_MSFontService,sans-serif" font-weight="700" font-size="14.6567" transform="matrix(1 0 0 0.999322 311.381 240)">汎化進捗の把握方法</text><path d="M300 314.12C300 311.729 301.94 309.79 304.333 309.79L437.667 309.79C440.06 309.79 442 311.729 442 314.12L442 331.441C442 333.833 440.06 335.772 437.667 335.772L304.333 335.772C301.94 335.772 300 333.833 300 331.441Z" stroke="#4472C4" stroke-width="2" stroke-miterlimit="8" fill="#FFFFFF" fill-rule="evenodd"/><text font-family="Calibri,Calibri_MSFontService,sans-serif" font-weight="700" font-size="14.6567" transform="matrix(1 0 0 0.999322 311.381 328)">Grokking</text><text font-family="Yu Gothic,Yu Gothic_MSFontService,sans-serif" font-weight="700" font-size="14.6567" transform="matrix(1 0 0 0.999322 366.214 328)">高速化法</text><path d="M0 0C9.6876 0 19.3752 19.9713 19.3752 39.9426 19.3752 59.914 29.0628 79.8853 38.7504 79.8853" stroke="#4472C4" stroke-width="1.99864" stroke-miterlimit="8" fill="none" fill-rule="evenodd" transform="matrix(1.00068 0 0 -1 262 246.772)"/><path d="M0 0C9.68757 0 19.3751 0.119892 19.3751 0.239785 19.3751 0.359677 29.0627 0.479569 38.7503 0.479569" stroke="#4472C4" stroke-width="1.99864" stroke-miterlimit="8" fill="none" fill-rule="evenodd" transform="matrix(1.00068 0 0 -1 262 247.312)"/><path d="M262 246.832C271.694 246.832 281.388 265.791 281.388 284.75 281.388 303.709 291.082 322.667 300.777 322.667" stroke="#4472C4" stroke-width="2" stroke-miterlimit="8" fill="none" fill-rule="evenodd"/><path d="M458 92.4374C458 89.9537 460.015 87.9403 462.5 87.9403L571.5 87.9403C573.985 87.9403 576 89.9537 576 92.4374L576 110.425C576 112.909 573.985 114.922 571.5 114.922L462.5 114.922C460.015 114.922 458 112.909 458 110.425Z" stroke="#4472C4" stroke-width="2" stroke-miterlimit="8" fill="#FFFFFF" fill-rule="evenodd"/><text font-family="Yu Gothic,Yu Gothic_MSFontService,sans-serif" font-weight="700" font-size="14.6567" transform="matrix(1 0 0 0.999322 468.642 107)">他現象との統合</text><path d="M0 0C9.82212 0 19.6442 16.426 19.6442 32.852 19.6442 49.278 29.4664 65.7041 39.2885 65.7041" stroke="#4472C4" stroke-width="1.99864" stroke-miterlimit="8" fill="none" fill-rule="evenodd" transform="matrix(1.00068 0 0 -1 418 166.636)"/><path d="M606 58.4604C606 55.9767 608.015 53.9634 610.5 53.9634L771.5 53.9634C773.985 53.9634 776 55.9767 776 58.4604L776 76.448C776 78.9317 773.985 80.945 771.5 80.945L610.5 80.945C608.015 80.945 606 78.9317 606 76.448Z" stroke="#4472C4" stroke-width="2" stroke-miterlimit="8" fill="#FFFFFF" fill-rule="evenodd"/><text font-family="Calibri,Calibri_MSFontService,sans-serif" font-weight="700" font-size="14.6567" transform="matrix(1 0 0 0.999322 617.017 72)">Grokking</text><text font-family="Yu Gothic,Yu Gothic_MSFontService,sans-serif" font-weight="700" font-size="14.6567" transform="matrix(1 0 0 0.999322 671.85 72)">と宝くじ仮説</text><path d="M606 92.4373C606 89.9537 608.015 87.9403 610.5 87.9403L771.5 87.9403C773.985 87.9403 776 89.9537 776 92.4373L776 110.425C776 112.909 773.985 114.922 771.5 114.922L610.5 114.922C608.015 114.922 606 112.909 606 110.425Z" stroke="#4472C4" stroke-width="2" stroke-miterlimit="8" fill="#FFFFFF" fill-rule="evenodd"/><text font-family="Calibri,Calibri_MSFontService,sans-serif" font-weight="700" font-size="14.6567" transform="matrix(1 0 0 0.999322 617.017 107)">Grokking</text><text font-family="Yu Gothic,Yu Gothic_MSFontService,sans-serif" font-weight="700" font-size="14.6567" transform="matrix(1 0 0 0.999322 671.85 107)">と二重降下</text><path d="M457 125.415C457 122.931 459.015 120.918 461.5 120.918L579.5 120.918C581.985 120.918 584 122.931 584 125.415L584 143.402C584 145.886 581.985 147.9 579.5 147.9L461.5 147.9C459.015 147.9 457 145.886 457 143.402Z" stroke="#4472C4" stroke-width="2" stroke-miterlimit="8" fill="#FFFFFF" fill-rule="evenodd"/><text font-family="Calibri,Calibri_MSFontService,sans-serif" font-weight="700" font-size="14.6567" transform="matrix(1 0 0 0.999322 467.565 139)">Softmax</text><text font-family="Calibri,Calibri_MSFontService,sans-serif" font-weight="700" font-size="14.6567" transform="matrix(1 0 0 0.999322 521.398 139)">Collapse</text><path d="M0 0C9.55302 0 19.106 8.18305 19.106 16.3661 19.106 24.5491 28.659 32.7321 38.2121 32.7321" stroke="#4472C4" stroke-width="1.99864" stroke-miterlimit="8" fill="none" fill-rule="evenodd" transform="matrix(1.00068 0 0 -1 418 166.641)"/><path d="M0 0C7.60207 0 15.2041 8.57211 15.2041 17.1442 15.2041 25.7163 22.8062 34.2884 30.4082 34.2884" stroke="#4472C4" stroke-width="1.99864" stroke-miterlimit="8" fill="none" fill-rule="evenodd" transform="matrix(1.00068 0 0 -1 576 101.243)"/><path d="M0 0C7.60208 0 15.2042 0.000104916 15.2042 0.000314747 15.2042 0.000419663 22.8061 0.000524578 30.4082 0.000524578" stroke="#4472C4" stroke-width="1.99864" stroke-miterlimit="8" fill="none" fill-rule="evenodd" transform="matrix(1.00068 0 0 -1 576 100.932)"/><path d="M481 288.138C481 285.746 482.94 283.807 485.333 283.807L556.667 283.807C559.06 283.807 561 285.746 561 288.138L561 305.459C561 307.851 559.06 309.79 556.667 309.79L485.333 309.79C482.94 309.79 481 307.851 481 305.459Z" stroke="#4472C4" stroke-width="2" stroke-miterlimit="8" fill="#FFFFFF" fill-rule="evenodd"/><text font-family="Yu Gothic,Yu Gothic_MSFontService,sans-serif" font-weight="700" font-size="14.6567" transform="matrix(1 0 0 0.999322 491.8 302)">勾配増幅</text><path d="M481 321.282C481 318.798 483.015 316.785 485.5 316.785L606.5 316.785C608.985 316.785 611 318.798 611 321.282L611 339.27C611 341.753 608.985 343.767 606.5 343.767L485.5 343.767C483.015 343.767 481 341.753 481 339.27Z" stroke="#4472C4" stroke-width="2" stroke-miterlimit="8" fill="#FFFFFF" fill-rule="evenodd"/><text font-family="Yu Gothic,Yu Gothic_MSFontService,sans-serif" font-weight="700" font-size="14.6567" transform="matrix(1 0 0 0.999322 491.8 335)">宝くじ仮説の手法</text><path d="M481 355.259C481 352.775 483.015 350.762 485.5 350.762L580.5 350.762C582.985 350.762 585 352.775 585 355.259L585 373.247C585 375.73 582.985 377.744 580.5 377.744L485.5 377.744C483.015 377.744 481 375.73 481 373.247Z" stroke="#4472C4" stroke-width="2" stroke-miterlimit="8" fill="#FFFFFF" fill-rule="evenodd"/><text font-family="Yu Gothic,Yu Gothic_MSFontService,sans-serif" font-weight="700" font-size="14.6567" transform="matrix(1 0 0 0.999322 491.8 369)">埋め込み転移</text><path d="M0 0C9.68757 0 19.3751 6.50529 19.3751 13.0106 19.3751 19.5159 29.0627 26.0212 38.7503 26.0212" stroke="#4472C4" stroke-width="1.99864" stroke-miterlimit="8" fill="none" fill-rule="evenodd" transform="matrix(1.00068 0 0 -1 442 322.82)"/><path d="M442 322.781C451.694 322.781 461.388 324.668 461.388 326.555 461.388 328.441 471.082 330.328 480.777 330.328" stroke="#4472C4" stroke-width="2" stroke-miterlimit="8" fill="none" fill-rule="evenodd"/><path d="M442 322.781C451.694 322.781 461.388 333.06 461.388 343.339 461.388 353.618 471.082 363.897 480.777 363.897" stroke="#4472C4" stroke-width="2" stroke-miterlimit="8" fill="none" fill-rule="evenodd"/><text font-family="Calibri,Calibri_MSFontService,sans-serif" font-weight="700" font-size="14.6567" transform="matrix(1 0 0 0.999322 785.623 75)">[1]</text><text font-family="Calibri,Calibri_MSFontService,sans-serif" font-weight="700" font-size="14.6567" transform="matrix(1 0 0 0.999322 620.822 340)">[1]</text><text font-family="Calibri,Calibri_MSFontService,sans-serif" font-weight="700" font-size="14.6567" transform="matrix(1 0 0 0.999322 594.432 372)">[4]GrokTransfer</text><text font-family="Calibri,Calibri_MSFontService,sans-serif" font-weight="700" font-size="14.6567" transform="matrix(1 0 0 0.999322 570.036 306)">[3]</text><text font-family="Calibri,Calibri_MSFontService,sans-serif" font-weight="700" font-size="14.6567" transform="matrix(1 0 0 0.999322 590.536 306)">GrokFast</text><path d="M300 407.557C300 404.337 302.612 401.727 305.833 401.727L424.167 401.727C427.388 401.727 430 404.337 430 407.557L430 430.874C430 434.094 427.388 436.704 424.167 436.704L305.833 436.704C302.612 436.704 300 434.094 300 430.874Z" stroke="#4472C4" stroke-width="2" stroke-miterlimit="8" fill="#FFFFFF" fill-rule="evenodd"/><text font-family="Calibri,Calibri_MSFontService,sans-serif" font-weight="700" font-size="14.6567" transform="matrix(1 0 0 0.999322 311.799 416)">Grokking</text><text font-family="Yu Gothic,Yu Gothic_MSFontService,sans-serif" font-weight="700" font-size="14.6567" transform="matrix(1 0 0 0.999322 366.633 416)">を他の</text><text font-family="Yu Gothic,Yu Gothic_MSFontService,sans-serif" font-weight="700" font-size="14.6567" transform="matrix(1 0 0 0.999322 311.799 433)">問題解決に活用</text><path d="M262 246.832C271.694 246.832 281.388 289.948 281.388 333.064 281.388 376.18 291.083 419.296 300.777 419.296" stroke="#4472C4" stroke-width="2" stroke-miterlimit="8" fill="none" fill-rule="evenodd"/><text font-family="Calibri,Calibri_MSFontService,sans-serif" font-weight="700" font-size="14.6567" transform="matrix(1 0 0 0.999322 785.598 110)">[2]</text><text font-family="Calibri,Calibri_MSFontService,sans-serif" font-weight="700" font-size="14.6567" transform="matrix(1 0 0 0.999322 153.346 234)">[0]</text><text font-family="Calibri,Calibri_MSFontService,sans-serif" font-weight="700" font-size="14.6567" transform="matrix(1 0 0 0.999322 447.137 241)">[5]</text><path d="M606 127.414C606 124.93 608.015 122.917 610.5 122.917L734.5 122.917C736.985 122.917 739 124.93 739 127.414L739 145.401C739 147.885 736.985 149.898 734.5 149.898L610.5 149.898C608.015 149.898 606 147.885 606 145.401Z" stroke="#4472C4" stroke-width="2" stroke-miterlimit="8" fill="#FFFFFF" fill-rule="evenodd"/><text font-family="Calibri,Calibri_MSFontService,sans-serif" font-weight="700" font-size="14.6567" transform="matrix(1 0 0 0.999322 616.992 141)">Grokking</text><text font-family="Yu Gothic,Yu Gothic_MSFontService,sans-serif" font-weight="700" font-size="14.6567" transform="matrix(1 0 0 0.999322 671.825 141)">と堅牢性</text><path d="M576 100.931C583.601 100.931 591.202 109.623 591.202 118.315 591.202 127.007 598.803 135.699 606.404 135.699" stroke="#4472C4" stroke-width="2" stroke-miterlimit="8" fill="none" fill-rule="evenodd"/><text font-family="Calibri,Calibri_MSFontService,sans-serif" font-weight="700" font-size="14.6567" transform="matrix(1 0 0 0.999322 748.95 146)">[6]</text><path d="M480 390.235C480 387.752 482.015 385.738 484.5 385.738L579.5 385.738C581.985 385.738 584 387.752 584 390.235L584 408.223C584 410.706 581.985 412.72 579.5 412.72L484.5 412.72C482.015 412.72 480 410.706 480 408.223Z" stroke="#4472C4" stroke-width="2" stroke-miterlimit="8" fill="#FFFFFF" fill-rule="evenodd"/><text font-family="Yu Gothic,Yu Gothic_MSFontService,sans-serif" font-weight="700" font-size="14.6567" transform="matrix(1 0 0 0.999322 490.723 404)">学習率最適化</text><text font-family="Calibri,Calibri_MSFontService,sans-serif" font-weight="700" font-size="14.6567" transform="matrix(1 0 0 0.999322 594.432 408)">[7]</text><text font-family="Calibri,Calibri_MSFontService,sans-serif" font-weight="700" font-size="14.6567" transform="matrix(1 0 0 0.999322 614.932 408)">Adam</text><text font-family="Calibri,Calibri_MSFontService,sans-serif" font-weight="700" font-size="14.6567" transform="matrix(1 0 0 0.999322 650.765 408)">-</text><text font-family="Calibri,Calibri_MSFontService,sans-serif" font-weight="700" font-size="14.6567" transform="matrix(1 0 0 0.999322 655.265 408)">LR</text><path d="M442 322.781C451.425 322.781 460.85 341.967 460.85 361.154 460.85 380.34 470.275 399.527 479.7 399.527" stroke="#4472C4" stroke-width="2" stroke-miterlimit="8" fill="none" fill-rule="evenodd"/><text fill="#FF0000" font-family="Yu Gothic,Yu Gothic_MSFontService,sans-serif" font-weight="700" font-size="14.6567" transform="matrix(1 0 0 0.999322 298.342 201)">『</text><text fill="#FF0000" font-family="Yu Gothic,Yu Gothic_MSFontService,sans-serif" font-weight="700" font-size="14.6567" transform="matrix(1 0 0 0.999322 313.008 201)">何で？何で？</text><text fill="#FF0000" font-family="Yu Gothic,Yu Gothic_MSFontService,sans-serif" font-weight="700" font-size="14.6567" transform="matrix(1 0 0 0.999322 327.675 218)">何</text><text fill="#FF0000" font-family="Yu Gothic,Yu Gothic_MSFontService,sans-serif" font-weight="700" font-size="14.6567" transform="matrix(1 0 0 0.999322 342.342 218)">で</text><text fill="#FF0000" font-family="Yu Gothic,Yu Gothic_MSFontService,sans-serif" font-weight="700" font-size="14.6567" transform="matrix(1 0 0 0.999322 357.008 218)">？</text><text fill="#FF0000" font-family="Yu Gothic,Yu Gothic_MSFontService,sans-serif" font-weight="700" font-size="14.6567" transform="matrix(1 0 0 0.999322 371.675 218)">･･･</text><text fill="#FF0000" font-family="Yu Gothic,Yu Gothic_MSFontService,sans-serif" font-weight="700" font-size="14.6567" transform="matrix(1 0 0 0.999322 393.675 218)">』</text><text fill="#FF0000" font-family="Yu Gothic,Yu Gothic_MSFontService,sans-serif" font-weight="700" font-size="14.6567" transform="matrix(1 0 0 0.999322 302.136 268)">『</text><text fill="#FF0000" font-family="Yu Gothic,Yu Gothic_MSFontService,sans-serif" font-weight="700" font-size="14.6567" transform="matrix(1 0 0 0.999322 316.803 268)">いつ起こるか判らず</text><text fill="#FF0000" font-family="Yu Gothic,Yu Gothic_MSFontService,sans-serif" font-weight="700" font-size="14.6567" transform="matrix(1 0 0 0.999322 316.803 285)">学習を続けるのは</text><text fill="#FF0000" font-family="Yu Gothic,Yu Gothic_MSFontService,sans-serif" font-weight="700" font-size="14.6567" transform="matrix(1 0 0 0.999322 316.803 303)">辛</text><text fill="#FF0000" font-family="Yu Gothic,Yu Gothic_MSFontService,sans-serif" font-weight="700" font-size="14.6567" transform="matrix(1 0 0 0.999322 331.47 303)">すぎる</text><text fill="#FF0000" font-family="Yu Gothic,Yu Gothic_MSFontService,sans-serif" font-weight="700" font-size="14.6567" transform="matrix(1 0 0 0.999322 375.47 303)">･･</text><text fill="#FF0000" font-family="Yu Gothic,Yu Gothic_MSFontService,sans-serif" font-weight="700" font-size="14.6567" transform="matrix(1 0 0 0.999322 390.136 303)">』</text><text fill="#FF0000" font-family="Yu Gothic,Yu Gothic_MSFontService,sans-serif" font-weight="700" font-size="14.6567" transform="matrix(1 0 0 0.999322 305.286 357)">『</text><text fill="#FF0000" font-family="Yu Gothic,Yu Gothic_MSFontService,sans-serif" font-weight="700" font-size="14.6567" transform="matrix(1 0 0 0.999322 319.953 357)">速く</text><text fill="#FF0000" font-family="Calibri,Calibri_MSFontService,sans-serif" font-weight="700" font-size="14.6567" transform="matrix(1 0 0 0.999322 349.286 357)">Grokking</text><text fill="#FF0000" font-family="Yu Gothic,Yu Gothic_MSFontService,sans-serif" font-weight="700" font-size="14.6567" transform="matrix(1 0 0 0.999322 319.953 374)">させたい</text><text fill="#FF0000" font-family="Yu Gothic,Yu Gothic_MSFontService,sans-serif" font-weight="700" font-size="14.6567" transform="matrix(1 0 0 0.999322 378.619 374)">･･</text><text fill="#FF0000" font-family="Yu Gothic,Yu Gothic_MSFontService,sans-serif" font-weight="700" font-size="14.6567" transform="matrix(1 0 0 0.999322 393.286 374)">』</text><text font-family="Calibri,Calibri_MSFontService,sans-serif" font-weight="700" font-size="14.6567" transform="matrix(1 0 0 0.999322 439.325 432)">[8]</text><text font-family="Calibri,Calibri_MSFontService,sans-serif" font-weight="700" font-size="14.6567" transform="matrix(1 0 0 0.999322 459.825 432)">What</text><text font-family="Calibri,Calibri_MSFontService,sans-serif" font-weight="700" font-size="14.6567" transform="matrix(1 0 0 0.999322 496.658 432)">Grokking</text><text font-family="Calibri,Calibri_MSFontService,sans-serif" font-weight="700" font-size="14.6567" transform="matrix(1 0 0 0.999322 554.825 432)">Teact</text><text font-family="Calibri,Calibri_MSFontService,sans-serif" font-weight="700" font-size="14.6567" transform="matrix(1 0 0 0.999322 591.325 432)">Us</text><text font-family="Yu Gothic,Yu Gothic_MSFontService,sans-serif" font-weight="700" font-size="14.6567" transform="matrix(1 0 0 0.999322 606.658 432)">･･･</text><path d="M458 158.393C458 155.909 460.015 153.896 462.5 153.896L665.5 153.896C667.985 153.896 670 155.909 670 158.393L670 176.38C670 178.864 667.985 180.877 665.5 180.877L462.5 180.877C460.015 180.877 458 178.864 458 176.38Z" stroke="#4472C4" stroke-width="2" stroke-miterlimit="8" fill="#FFFFFF" fill-rule="evenodd"/><text font-family="Yu Gothic,Yu Gothic_MSFontService,sans-serif" font-weight="700" font-size="14.6567" transform="matrix(1 0 0 0.999322 468.642 172)">暗記回路</text><text font-family="Calibri,Calibri_MSFontService,sans-serif" font-weight="700" font-size="14.6567" transform="matrix(1 0 0 0.999322 527.308 172)">/</text><text font-family="Yu Gothic,Yu Gothic_MSFontService,sans-serif" font-weight="700" font-size="14.6567" transform="matrix(1 0 0 0.999322 533.642 172)">汎化回路の優劣逆転</text><path d="M457 194.368C457 191.884 459.015 189.871 461.5 189.871L490.5 189.871C492.985 189.871 495 191.884 495 194.368L495 212.356C495 214.839 492.985 216.853 490.5 216.853L461.5 216.853C459.015 216.853 457 214.839 457 212.356Z" stroke="#4472C4" stroke-width="2" stroke-miterlimit="8" fill="#FFFFFF" fill-rule="evenodd"/><text font-family="Yu Gothic,Yu Gothic_MSFontService,sans-serif" font-weight="700" font-size="14.6567" transform="matrix(1 0 0 0.999322 467.565 208)">･･･</text><path d="M418 166.887C427.829 166.887 437.658 166.947 437.658 167.007 437.658 167.067 447.486 167.127 457.315 167.127" stroke="#4472C4" stroke-width="2" stroke-miterlimit="8" fill="none" fill-rule="evenodd"/><path d="M418 166.887C427.56 166.887 437.119 175.903 437.119 184.919 437.119 193.934 446.678 202.95 456.238 202.95" stroke="#4472C4" stroke-width="2" stroke-miterlimit="8" fill="none" fill-rule="evenodd"/><path d="M8 12.4917C8 10.008 10.0148 7.99457 12.5001 7.99457L175.5 7.99457C177.985 7.99457 180 10.008 180 12.4917L180 30.4791C180 32.9628 177.985 34.9763 175.5 34.9763L12.5001 34.9763C10.0148 34.9763 8 32.9628 8 30.4791Z" stroke="#4472C4" stroke-width="2" stroke-miterlimit="8" fill="#FFFFFF" fill-rule="evenodd"/><text font-family="Yu Gothic,Yu Gothic_MSFontService,sans-serif" font-weight="700" font-size="14.6567" transform="matrix(1 0 0 0.999322 18.5925 27)">『</text><text font-family="Yu Gothic,Yu Gothic_MSFontService,sans-serif" font-weight="700" font-size="14.6567" transform="matrix(1 0 0 0.999322 33.2592 27)">暗記から汎化</text><text font-family="Yu Gothic,Yu Gothic_MSFontService,sans-serif" font-weight="700" font-size="14.6567" transform="matrix(1 0 0 0.999322 121.259 27)">』</text><text font-family="Yu Gothic,Yu Gothic_MSFontService,sans-serif" font-weight="700" font-size="14.6567" transform="matrix(1 0 0 0.999322 139.259 27)">研究</text><path d="M151.212 247.15C122.606 247.15 94 141.063 94 34.9763" stroke="#4472C4" stroke-width="2" stroke-miterlimit="8" fill="none" fill-rule="evenodd"/><path d="M151 56.4618C151 53.9781 153.015 51.9647 155.5 51.9647L185.5 51.9647C187.985 51.9647 190 53.9781 190 56.4618L190 74.4494C190 76.933 187.985 78.9464 185.5 78.9464L155.5 78.9464C153.015 78.9464 151 76.933 151 74.4494Z" stroke="#4472C4" stroke-width="2" stroke-miterlimit="8" fill="#FFFFFF" fill-rule="evenodd"/><text font-family="Yu Gothic,Yu Gothic_MSFontService,sans-serif" font-weight="700" font-size="14.6567" transform="matrix(1 0 0 0.999322 162.198 71)">･･･</text><path d="M151 102.431C151 99.9469 153.015 97.9335 155.5 97.9335L185.5 97.9335C187.985 97.9335 190 99.9469 190 102.431L190 120.418C190 122.902 187.985 124.915 185.5 124.915L155.5 124.915C153.015 124.915 151 122.902 151 120.418Z" stroke="#4472C4" stroke-width="2" stroke-miterlimit="8" fill="#FFFFFF" fill-rule="evenodd"/><text font-family="Yu Gothic,Yu Gothic_MSFontService,sans-serif" font-weight="700" font-size="14.6567" transform="matrix(1 0 0 0.999322 161.659 116)">･･･</text><path d="M151.212 66.0267C122.606 66.0267 94 50.5014 94 34.9763" stroke="#4472C4" stroke-width="2" stroke-miterlimit="8" fill="none" fill-rule="evenodd"/><path d="M150.673 111.302C122.336 111.302 94 73.139 94 34.9762" stroke="#4472C4" stroke-width="2" stroke-miterlimit="8" fill="none" fill-rule="evenodd"/><text fill="#0A0A0A" font-family="Yu Gothic,Yu Gothic_MSFontService,sans-serif" font-weight="700" font-size="14.6567" transform="matrix(1 0 0 0.999322 125.526 156)">長い過学習状態の後</text><text fill="#FF0000" font-family="Yu Gothic,Yu Gothic_MSFontService,sans-serif" font-weight="700" font-size="14.6567" transform="matrix(1 0 0 0.999322 128.859 173)">突然かつ劇的に</text><text fill="#FF0000" font-family="Yu Gothic,Yu Gothic_MSFontService,sans-serif" font-weight="700" font-size="14.6567" transform="matrix(1 0 0 0.999322 132.192 191)">汎化性能が向上する</text><text fill="#0A0A0A" font-family="Yu Gothic,Yu Gothic_MSFontService,sans-serif" font-weight="700" font-size="14.6567" transform="matrix(1 0 0 0.999322 135.526 208)">現象</text><path d="M481 259.491C481 257.467 482.642 255.826 484.667 255.826L615.333 255.826C617.358 255.826 619 257.467 619 259.491L619 274.147C619 276.171 617.358 277.811 615.333 277.811L484.667 277.811C482.642 277.811 481 276.171 481 274.147Z" stroke="#4472C4" stroke-width="2" stroke-miterlimit="8" fill="#FFFFFF" fill-rule="evenodd"/><text font-family="Calibri,Calibri_MSFontService,sans-serif" font-weight="700" font-size="14.6567" transform="matrix(1 0 0 0.999322 491.406 271)">StableMax,</text><text font-family="MS Gothic,MS Gothic_MSFontService,sans-serif" font-weight="700" font-size="14.6567" transform="matrix(1 0 0 0.999322 563.406 271)">┴</text><text font-family="Calibri,Calibri_MSFontService,sans-serif" font-weight="700" font-size="14.6567" transform="matrix(1 0 0 0.999322 578.073 271)">GRAD</text><path d="M0 0C9.64758 0 19.2952 14.0987 19.2952 28.1974 19.2952 42.2962 28.9428 56.3949 38.5904 56.3949" stroke="#4472C4" stroke-width="1.99864" stroke-miterlimit="8" fill="none" fill-rule="evenodd" transform="matrix(1.00068 0 0 -1 442 323.214)"/><path d="M300 450.528C300 447.308 302.612 444.698 305.833 444.698L424.167 444.698C427.388 444.698 430 447.308 430 450.528L430 473.845C430 477.064 427.388 479.674 424.167 479.674L305.833 479.674C302.612 479.674 300 477.064 300 473.845Z" stroke="#4472C4" stroke-width="2" stroke-miterlimit="8" fill="#FFFFFF" fill-rule="evenodd"/><text font-family="Yu Gothic,Yu Gothic_MSFontService,sans-serif" font-weight="700" font-size="14.6567" transform="matrix(1 0 0 0.999322 311.799 459)">プローブとして</text><text font-family="Calibri,Calibri_MSFontService,sans-serif" font-weight="700" font-size="14.6567" transform="matrix(1 0 0 0.999322 311.799 476)">Grokking</text><text font-family="Yu Gothic,Yu Gothic_MSFontService,sans-serif" font-weight="700" font-size="14.6567" transform="matrix(1 0 0 0.999322 366.632 476)">を使う</text><path d="M262 246.832C269.795 246.832 277.591 300.69 277.591 354.548 277.591 408.406 289.184 462.263 300.777 462.263" stroke="#4472C4" stroke-width="2" stroke-miterlimit="8" fill="none" fill-rule="evenodd"/></g></svg>