<svg width="822" height="491" xmlns="http://www.w3.org/2000/svg" xmlns:xlink="http://www.w3.org/1999/xlink" overflow="hidden"><g><rect x="0" y="0" width="822" height="490.667" fill="#FFFFFF"/><path d="M290 143.403C290 140.919 292.015 138.906 294.5 138.906L403.5 138.906C405.985 138.906 408 140.919 408 143.403L408 161.39C408 163.874 405.985 165.887 403.5 165.887L294.5 165.887C292.015 165.887 290 163.874 290 161.39Z" stroke="#4472C4" stroke-width="2" stroke-miterlimit="8" fill="#FFFFFF" fill-rule="evenodd"/><text font-family="Yu Gothic,Yu Gothic_MSFontService,sans-serif" font-weight="700" font-size="14.6567" transform="matrix(1 0 0 0.999322 301.275 157)">メカニズム理解</text><path d="M141 223.182C141 220.79 142.94 218.851 145.333 218.851L247.667 218.851C250.06 218.851 252 220.79 252 223.182L252 240.503C252 242.895 250.06 244.834 247.667 244.834L145.333 244.834C142.94 244.834 141 242.895 141 240.503Z" stroke="#4472C4" stroke-width="2" stroke-miterlimit="8" fill="#FFFFFF" fill-rule="evenodd"/><text font-family="Calibri,Calibri_MSFontService,sans-serif" font-weight="700" font-size="14.6567" transform="matrix(1 0 0 0.999322 152.092 237)">Grokking</text><text font-family="Yu Gothic,Yu Gothic_MSFontService,sans-serif" font-weight="700" font-size="14.6567" transform="matrix(1 0 0 0.999322 206.926 237)">研究</text><path d="M290 211.19C290 208.798 291.94 206.86 294.333 206.86L437.667 206.86C440.06 206.86 442 208.798 442 211.19L442 228.511C442 230.903 440.06 232.842 437.667 232.842L294.333 232.842C291.94 232.842 290 230.903 290 228.511Z" stroke="#4472C4" stroke-width="2" stroke-miterlimit="8" fill="#FFFFFF" fill-rule="evenodd"/><text font-family="Yu Gothic,Yu Gothic_MSFontService,sans-serif" font-weight="700" font-size="14.6567" transform="matrix(1 0 0 0.999322 301.275 225)">汎化進捗の把握方法</text><path d="M290 323.281C290 320.797 292.015 318.784 294.5 318.784L427.5 318.784C429.985 318.784 432 320.797 432 323.281L432 341.268C432 343.752 429.985 345.765 427.5 345.765L294.5 345.765C292.015 345.765 290 343.752 290 341.268Z" stroke="#4472C4" stroke-width="2" stroke-miterlimit="8" fill="#FFFFFF" fill-rule="evenodd"/><text font-family="Calibri,Calibri_MSFontService,sans-serif" font-weight="700" font-size="14.6567" transform="matrix(1 0 0 0.999322 301.275 337)">Grokking</text><text font-family="Yu Gothic,Yu Gothic_MSFontService,sans-serif" font-weight="700" font-size="14.6567" transform="matrix(1 0 0 0.999322 356.109 337)">高速化法</text><path d="M0 0C9.6876 0 19.3752 19.9713 19.3752 39.9426 19.3752 59.914 29.0628 79.8853 38.7504 79.8853" stroke="#4472C4" stroke-width="1.99864" stroke-miterlimit="8" fill="none" fill-rule="evenodd" transform="matrix(1.00068 0 0 -1 252 231.782)"/><path d="M0 0C9.6876 0 19.3752 3.00694 19.3752 6.01387 19.3752 9.02081 29.0628 12.0277 38.7504 12.0277" stroke="#4472C4" stroke-width="1.99864" stroke-miterlimit="8" fill="none" fill-rule="evenodd" transform="matrix(1.00068 0 0 -1 252 231.878)"/><path d="M252 231.843C261.694 231.843 271.388 256.955 271.388 282.068 271.388 307.18 281.083 332.293 290.777 332.293" stroke="#4472C4" stroke-width="2" stroke-miterlimit="8" fill="none" fill-rule="evenodd"/><path d="M448 77.4475C448 74.9639 450.015 72.9505 452.5 72.9505L561.5 72.9505C563.985 72.9505 566 74.9639 566 77.4475L566 95.4351C566 97.9188 563.985 99.9322 561.5 99.9322L452.5 99.9322C450.015 99.9322 448 97.9188 448 95.4351Z" stroke="#4472C4" stroke-width="2" stroke-miterlimit="8" fill="#FFFFFF" fill-rule="evenodd"/><text font-family="Yu Gothic,Yu Gothic_MSFontService,sans-serif" font-weight="700" font-size="14.6567" transform="matrix(1 0 0 0.999322 458.536 91)">他現象との統合</text><path d="M0 0C9.82212 0 19.6442 16.426 19.6442 32.852 19.6442 49.278 29.4664 65.7041 39.2885 65.7041" stroke="#4472C4" stroke-width="1.99864" stroke-miterlimit="8" fill="none" fill-rule="evenodd" transform="matrix(1.00068 0 0 -1 408 151.646)"/><path d="M596 43.3041C596 40.9124 597.94 38.9735 600.333 38.9735L761.667 38.9735C764.06 38.9735 766 40.9124 766 43.3041L766 60.6254C766 63.017 764.06 64.9559 761.667 64.9559L600.333 64.9559C597.94 64.9559 596 63.017 596 60.6254Z" stroke="#4472C4" stroke-width="2" stroke-miterlimit="8" fill="#FFFFFF" fill-rule="evenodd"/><text font-family="Calibri,Calibri_MSFontService,sans-serif" font-weight="700" font-size="14.6567" transform="matrix(1 0 0 0.999322 606.911 57)">Grokking</text><text font-family="Yu Gothic,Yu Gothic_MSFontService,sans-serif" font-weight="700" font-size="14.6567" transform="matrix(1 0 0 0.999322 661.745 57)">と宝くじ仮説</text><path d="M596 77.4475C596 74.9639 598.015 72.9505 600.5 72.9505L761.5 72.9505C763.985 72.9505 766 74.9639 766 77.4475L766 95.4352C766 97.9188 763.985 99.9322 761.5 99.9322L600.5 99.9322C598.015 99.9322 596 97.9188 596 95.4352Z" stroke="#4472C4" stroke-width="2" stroke-miterlimit="8" fill="#FFFFFF" fill-rule="evenodd"/><text font-family="Calibri,Calibri_MSFontService,sans-serif" font-weight="700" font-size="14.6567" transform="matrix(1 0 0 0.999322 606.911 91)">Grokking</text><text font-family="Yu Gothic,Yu Gothic_MSFontService,sans-serif" font-weight="700" font-size="14.6567" transform="matrix(1 0 0 0.999322 661.745 91)">と二重降下</text><path d="M447 110.425C447 107.941 449.015 105.928 451.5 105.928L569.5 105.928C571.985 105.928 574 107.941 574 110.425L574 128.413C574 130.896 571.985 132.91 569.5 132.91L451.5 132.91C449.015 132.91 447 130.896 447 128.413Z" stroke="#4472C4" stroke-width="2" stroke-miterlimit="8" fill="#FFFFFF" fill-rule="evenodd"/><text font-family="Calibri,Calibri_MSFontService,sans-serif" font-weight="700" font-size="14.6567" transform="matrix(1 0 0 0.999322 457.459 124)">Softmax</text><text font-family="Calibri,Calibri_MSFontService,sans-serif" font-weight="700" font-size="14.6567" transform="matrix(1 0 0 0.999322 511.293 124)">Collapse</text><path d="M0 0C9.55302 0 19.106 8.18305 19.106 16.3661 19.106 24.5491 28.659 32.7321 38.2121 32.7321" stroke="#4472C4" stroke-width="1.99864" stroke-miterlimit="8" fill="none" fill-rule="evenodd" transform="matrix(1.00068 0 0 -1 408 151.651)"/><path d="M0 0C7.60207 0 15.2041 8.57211 15.2041 17.1442 15.2041 25.7163 22.8062 34.2884 30.4082 34.2884" stroke="#4472C4" stroke-width="1.99864" stroke-miterlimit="8" fill="none" fill-rule="evenodd" transform="matrix(1.00068 0 0 -1 566 86.2532)"/><path d="M0 0C7.60208 0 15.2042 0.000104916 15.2042 0.000314747 15.2042 0.000419663 22.8061 0.000524578 30.4082 0.000524578" stroke="#4472C4" stroke-width="1.99864" stroke-miterlimit="8" fill="none" fill-rule="evenodd" transform="matrix(1.00068 0 0 -1 566 85.9422)"/><path d="M471 289.304C471 286.82 473.015 284.807 475.5 284.807L545.5 284.807C547.985 284.807 550 286.82 550 289.304L550 307.291C550 309.775 547.985 311.788 545.5 311.788L475.5 311.788C473.015 311.788 471 309.775 471 307.291Z" stroke="#4472C4" stroke-width="2" stroke-miterlimit="8" fill="#FFFFFF" fill-rule="evenodd"/><text font-family="Yu Gothic,Yu Gothic_MSFontService,sans-serif" font-weight="700" font-size="14.6567" transform="matrix(1 0 0 0.999322 481.695 304)">勾配増幅</text><path d="M471 323.281C471 320.797 473.015 318.784 475.5 318.784L596.5 318.784C598.985 318.784 601 320.797 601 323.281L601 341.268C601 343.752 598.985 345.765 596.5 345.765L475.5 345.765C473.015 345.765 471 343.752 471 341.268Z" stroke="#4472C4" stroke-width="2" stroke-miterlimit="8" fill="#FFFFFF" fill-rule="evenodd"/><text font-family="Yu Gothic,Yu Gothic_MSFontService,sans-serif" font-weight="700" font-size="14.6567" transform="matrix(1 0 0 0.999322 481.695 337)">宝くじ仮説の手法</text><path d="M471 357.258C471 354.774 473.015 352.761 475.5 352.761L570.5 352.761C572.985 352.761 575 354.774 575 357.258L575 375.245C575 377.729 572.985 379.742 570.5 379.742L475.5 379.742C473.015 379.742 471 377.729 471 375.245Z" stroke="#4472C4" stroke-width="2" stroke-miterlimit="8" fill="#FFFFFF" fill-rule="evenodd"/><text font-family="Yu Gothic,Yu Gothic_MSFontService,sans-serif" font-weight="700" font-size="14.6567" transform="matrix(1 0 0 0.999322 481.695 371)">埋め込み転移</text><path d="M0 0C9.68757 0 19.3751 8.39882 19.3751 16.7976 19.3751 25.1964 29.0627 33.5952 38.7503 33.5952" stroke="#4472C4" stroke-width="1.99864" stroke-miterlimit="8" fill="none" fill-rule="evenodd" transform="matrix(1.00068 0 0 -1 432 332.392)"/><path d="M0 0C9.6876 0 19.3752 0.0067146 19.3752 0.0134292 19.3752 0.0200389 29.0627 0.0267535 38.7503 0.0267535" stroke="#4472C4" stroke-width="1.99864" stroke-miterlimit="8" fill="none" fill-rule="evenodd" transform="matrix(1.00068 0 0 -1 432 331.802)"/><path d="M432 332.774C441.694 332.774 451.388 341.16 451.388 349.545 451.388 357.93 461.082 366.316 470.777 366.316" stroke="#4472C4" stroke-width="2" stroke-miterlimit="8" fill="none" fill-rule="evenodd"/><text font-family="Calibri,Calibri_MSFontService,sans-serif" font-weight="700" font-size="14.6567" transform="matrix(1 0 0 0.999322 579.274 371)">GrokTransfer</text><text font-family="Calibri,Calibri_MSFontService,sans-serif" font-weight="700" font-size="14.6567" transform="matrix(1 0 0 0.999322 556.141 304)">GrokFast</text><path d="M293 410.555C293 407.335 295.612 404.725 298.833 404.725L416.167 404.725C419.388 404.725 422 407.335 422 410.555L422 433.872C422 437.092 419.388 439.702 416.167 439.702L298.833 439.702C295.612 439.702 293 437.092 293 433.872Z" stroke="#4472C4" stroke-width="2" stroke-miterlimit="8" fill="#FFFFFF" fill-rule="evenodd"/><text font-family="Calibri,Calibri_MSFontService,sans-serif" font-weight="700" font-size="14.6567" transform="matrix(1 0 0 0.999322 304.22 418)">Grokking</text><text font-family="Yu Gothic,Yu Gothic_MSFontService,sans-serif" font-weight="700" font-size="14.6567" transform="matrix(1 0 0 0.999322 359.053 418)">を他の</text><text font-family="Yu Gothic,Yu Gothic_MSFontService,sans-serif" font-weight="700" font-size="14.6567" transform="matrix(1 0 0 0.999322 304.22 435)">問題解決に活用</text><path d="M252 231.843C262.326 231.843 272.652 279.377 272.652 326.911 272.652 374.445 282.977 421.979 293.303 421.979" stroke="#4472C4" stroke-width="2" stroke-miterlimit="8" fill="none" fill-rule="evenodd"/><path d="M596 112.424C596 109.94 598.015 107.927 600.5 107.927L724.5 107.927C726.985 107.927 729 109.94 729 112.424L729 130.411C729 132.895 726.985 134.908 724.5 134.908L600.5 134.908C598.015 134.908 596 132.895 596 130.411Z" stroke="#4472C4" stroke-width="2" stroke-miterlimit="8" fill="#FFFFFF" fill-rule="evenodd"/><text font-family="Calibri,Calibri_MSFontService,sans-serif" font-weight="700" font-size="14.6567" transform="matrix(1 0 0 0.999322 606.886 126)">Grokking</text><text font-family="Yu Gothic,Yu Gothic_MSFontService,sans-serif" font-weight="700" font-size="14.6567" transform="matrix(1 0 0 0.999322 661.719 126)">と堅牢性</text><path d="M566 85.9417C573.601 85.9417 581.202 94.6334 581.202 103.325 581.202 112.017 588.803 120.709 596.404 120.709" stroke="#4472C4" stroke-width="2" stroke-miterlimit="8" fill="none" fill-rule="evenodd"/><path d="M470 392.234C470 389.75 472.015 387.737 474.5 387.737L569.5 387.737C571.985 387.737 574 389.75 574 392.234L574 410.221C574 412.705 571.985 414.718 569.5 414.718L474.5 414.718C472.015 414.718 470 412.705 470 410.221Z" stroke="#4472C4" stroke-width="2" stroke-miterlimit="8" fill="#FFFFFF" fill-rule="evenodd"/><text font-family="Yu Gothic,Yu Gothic_MSFontService,sans-serif" font-weight="700" font-size="14.6567" transform="matrix(1 0 0 0.999322 480.618 406)">学習率最適化</text><text font-family="Calibri,Calibri_MSFontService,sans-serif" font-weight="700" font-size="14.6567" transform="matrix(1 0 0 0.999322 578.642 406)">Adam</text><text font-family="Calibri,Calibri_MSFontService,sans-serif" font-weight="700" font-size="14.6567" transform="matrix(1 0 0 0.999322 614.475 406)">-</text><text font-family="Calibri,Calibri_MSFontService,sans-serif" font-weight="700" font-size="14.6567" transform="matrix(1 0 0 0.999322 618.975 406)">LR</text><path d="M432 332.774C441.425 332.774 450.85 350.067 450.85 367.36 450.85 384.653 460.275 401.946 469.7 401.946" stroke="#4472C4" stroke-width="2" stroke-miterlimit="8" fill="none" fill-rule="evenodd"/><text fill="#FF0000" font-family="Yu Gothic,Yu Gothic_MSFontService,sans-serif" font-weight="700" font-size="14.6567" transform="matrix(1 0 0 0.999322 288.236 186)">『</text><text fill="#FF0000" font-family="Yu Gothic,Yu Gothic_MSFontService,sans-serif" font-weight="700" font-size="14.6567" transform="matrix(1 0 0 0.999322 302.903 186)">何で？何で？</text><text fill="#FF0000" font-family="Yu Gothic,Yu Gothic_MSFontService,sans-serif" font-weight="700" font-size="14.6567" transform="matrix(1 0 0 0.999322 317.569 203)">何</text><text fill="#FF0000" font-family="Yu Gothic,Yu Gothic_MSFontService,sans-serif" font-weight="700" font-size="14.6567" transform="matrix(1 0 0 0.999322 332.236 203)">で</text><text fill="#FF0000" font-family="Yu Gothic,Yu Gothic_MSFontService,sans-serif" font-weight="700" font-size="14.6567" transform="matrix(1 0 0 0.999322 346.903 203)">？</text><text fill="#FF0000" font-family="Yu Gothic,Yu Gothic_MSFontService,sans-serif" font-weight="700" font-size="14.6567" transform="matrix(1 0 0 0.999322 361.569 203)">･･･</text><text fill="#FF0000" font-family="Yu Gothic,Yu Gothic_MSFontService,sans-serif" font-weight="700" font-size="14.6567" transform="matrix(1 0 0 0.999322 383.569 203)">』</text><text fill="#FF0000" font-family="Yu Gothic,Yu Gothic_MSFontService,sans-serif" font-weight="700" font-size="14.6567" transform="matrix(1 0 0 0.999322 292.031 253)">『</text><text fill="#FF0000" font-family="Yu Gothic,Yu Gothic_MSFontService,sans-serif" font-weight="700" font-size="14.6567" transform="matrix(1 0 0 0.999322 306.697 253)">いつ起こるか判らず</text><text fill="#FF0000" font-family="Yu Gothic,Yu Gothic_MSFontService,sans-serif" font-weight="700" font-size="14.6567" transform="matrix(1 0 0 0.999322 306.697 270)">学習を続けるのは</text><text fill="#FF0000" font-family="Yu Gothic,Yu Gothic_MSFontService,sans-serif" font-weight="700" font-size="14.6567" transform="matrix(1 0 0 0.999322 306.697 288)">辛</text><text fill="#FF0000" font-family="Yu Gothic,Yu Gothic_MSFontService,sans-serif" font-weight="700" font-size="14.6567" transform="matrix(1 0 0 0.999322 321.364 288)">すぎる</text><text fill="#FF0000" font-family="Yu Gothic,Yu Gothic_MSFontService,sans-serif" font-weight="700" font-size="14.6567" transform="matrix(1 0 0 0.999322 365.364 288)">･･</text><text fill="#FF0000" font-family="Yu Gothic,Yu Gothic_MSFontService,sans-serif" font-weight="700" font-size="14.6567" transform="matrix(1 0 0 0.999322 380.031 288)">』</text><text fill="#FF0000" font-family="Yu Gothic,Yu Gothic_MSFontService,sans-serif" font-weight="700" font-size="14.6567" transform="matrix(1 0 0 0.999322 294.853 365)">『</text><text fill="#FF0000" font-family="Yu Gothic,Yu Gothic_MSFontService,sans-serif" font-weight="700" font-size="14.6567" transform="matrix(1 0 0 0.999322 309.519 365)">速く</text><text fill="#FF0000" font-family="Calibri,Calibri_MSFontService,sans-serif" font-weight="700" font-size="14.6567" transform="matrix(1 0 0 0.999322 338.853 365)">Grokking</text><text fill="#FF0000" font-family="Yu Gothic,Yu Gothic_MSFontService,sans-serif" font-weight="700" font-size="14.6567" transform="matrix(1 0 0 0.999322 309.519 382)">させたい</text><text fill="#FF0000" font-family="Yu Gothic,Yu Gothic_MSFontService,sans-serif" font-weight="700" font-size="14.6567" transform="matrix(1 0 0 0.999322 368.186 382)">･･</text><text fill="#FF0000" font-family="Yu Gothic,Yu Gothic_MSFontService,sans-serif" font-weight="700" font-size="14.6567" transform="matrix(1 0 0 0.999322 382.853 382)">』</text><path d="M448 143.403C448 140.919 450.015 138.906 452.5 138.906L655.5 138.906C657.985 138.906 660 140.919 660 143.403L660 161.39C660 163.874 657.985 165.887 655.5 165.887L452.5 165.887C450.015 165.887 448 163.874 448 161.39Z" stroke="#4472C4" stroke-width="2" stroke-miterlimit="8" fill="#FFFFFF" fill-rule="evenodd"/><text font-family="Yu Gothic,Yu Gothic_MSFontService,sans-serif" font-weight="700" font-size="14.6567" transform="matrix(1 0 0 0.999322 458.536 157)">暗記回路</text><text font-family="Calibri,Calibri_MSFontService,sans-serif" font-weight="700" font-size="14.6567" transform="matrix(1 0 0 0.999322 517.203 157)">/</text><text font-family="Yu Gothic,Yu Gothic_MSFontService,sans-serif" font-weight="700" font-size="14.6567" transform="matrix(1 0 0 0.999322 523.536 157)">汎化回路の優劣逆転</text><path d="M447 179.378C447 176.895 449.015 174.881 451.5 174.881L480.5 174.881C482.985 174.881 485 176.895 485 179.378L485 197.366C485 199.85 482.985 201.863 480.5 201.863L451.5 201.863C449.015 201.863 447 199.85 447 197.366Z" stroke="#4472C4" stroke-width="2" stroke-miterlimit="8" fill="#FFFFFF" fill-rule="evenodd"/><text font-family="Yu Gothic,Yu Gothic_MSFontService,sans-serif" font-weight="700" font-size="14.6567" transform="matrix(1 0 0 0.999322 457.459 193)">･･･</text><path d="M408 151.897C417.829 151.897 427.658 151.957 427.658 152.017 427.658 152.077 437.486 152.137 447.315 152.137" stroke="#4472C4" stroke-width="2" stroke-miterlimit="8" fill="none" fill-rule="evenodd"/><path d="M408 151.897C417.56 151.897 427.119 160.913 427.119 169.929 427.119 178.945 436.678 187.96 446.238 187.96" stroke="#4472C4" stroke-width="2" stroke-miterlimit="8" fill="none" fill-rule="evenodd"/><path d="M8 12.4917C8 10.008 10.0148 7.99457 12.5001 7.99457L175.5 7.99457C177.985 7.99457 180 10.008 180 12.4917L180 30.4791C180 32.9628 177.985 34.9763 175.5 34.9763L12.5001 34.9763C10.0148 34.9763 8 32.9628 8 30.4791Z" stroke="#4472C4" stroke-width="2" stroke-miterlimit="8" fill="#FFFFFF" fill-rule="evenodd"/><text font-family="Yu Gothic,Yu Gothic_MSFontService,sans-serif" font-weight="700" font-size="14.6567" transform="matrix(1 0 0 0.999322 18.5925 27)">『</text><text font-family="Yu Gothic,Yu Gothic_MSFontService,sans-serif" font-weight="700" font-size="14.6567" transform="matrix(1 0 0 0.999322 33.2592 27)">暗記から汎化</text><text font-family="Yu Gothic,Yu Gothic_MSFontService,sans-serif" font-weight="700" font-size="14.6567" transform="matrix(1 0 0 0.999322 121.259 27)">』</text><text font-family="Yu Gothic,Yu Gothic_MSFontService,sans-serif" font-weight="700" font-size="14.6567" transform="matrix(1 0 0 0.999322 139.259 27)">研究</text><path d="M141.106 232.002C117.553 232.002 94 133.489 94 34.9762" stroke="#4472C4" stroke-width="2" stroke-miterlimit="8" fill="none" fill-rule="evenodd"/><path d="M151 56.4618C151 53.9781 153.015 51.9647 155.5 51.9647L185.5 51.9647C187.985 51.9647 190 53.9781 190 56.4618L190 74.4494C190 76.933 187.985 78.9464 185.5 78.9464L155.5 78.9464C153.015 78.9464 151 76.933 151 74.4494Z" stroke="#4472C4" stroke-width="2" stroke-miterlimit="8" fill="#FFFFFF" fill-rule="evenodd"/><text font-family="Yu Gothic,Yu Gothic_MSFontService,sans-serif" font-weight="700" font-size="14.6567" transform="matrix(1 0 0 0.999322 162.198 71)">･･･</text><path d="M151 94.2694C151 91.8778 152.94 89.9389 155.333 89.9389L185.667 89.9389C188.06 89.9389 190 91.8778 190 94.2694L190 111.591C190 113.982 188.06 115.921 185.667 115.921L155.333 115.921C152.94 115.921 151 113.982 151 111.591Z" stroke="#4472C4" stroke-width="2" stroke-miterlimit="8" fill="#FFFFFF" fill-rule="evenodd"/><text font-family="Yu Gothic,Yu Gothic_MSFontService,sans-serif" font-weight="700" font-size="14.6567" transform="matrix(1 0 0 0.999322 161.659 108)">･･･</text><path d="M151.212 66.0267C122.606 66.0267 94 50.5014 94 34.9763" stroke="#4472C4" stroke-width="2" stroke-miterlimit="8" fill="none" fill-rule="evenodd"/><path d="M150.673 103.097C122.337 103.097 94 69.0364 94 34.9763" stroke="#4472C4" stroke-width="2" stroke-miterlimit="8" fill="none" fill-rule="evenodd"/><text fill="#0A0A0A" font-family="Yu Gothic,Yu Gothic_MSFontService,sans-serif" font-weight="700" font-size="14.6567" transform="matrix(1 0 0 0.999322 110.816 157)">長い過学習状態の後</text><text fill="#FF0000" font-family="Yu Gothic,Yu Gothic_MSFontService,sans-serif" font-weight="700" font-size="14.6567" transform="matrix(1 0 0 0.999322 117.483 174)">突然</text><text fill="#FF0000" font-family="Yu Gothic,Yu Gothic_MSFontService,sans-serif" font-weight="700" font-size="14.6567" transform="matrix(1 0 0 0.999322 146.816 174)">かつ劇的に</text><text fill="#FF0000" font-family="Yu Gothic,Yu Gothic_MSFontService,sans-serif" font-weight="700" font-size="14.6567" transform="matrix(1 0 0 0.999322 120.816 192)">汎化</text><text fill="#FF0000" font-family="Yu Gothic,Yu Gothic_MSFontService,sans-serif" font-weight="700" font-size="14.6567" transform="matrix(1 0 0 0.999322 150.149 192)">性能が向上する</text><text fill="#0A0A0A" font-family="Yu Gothic,Yu Gothic_MSFontService,sans-serif" font-weight="700" font-size="14.6567" transform="matrix(1 0 0 0.999322 127.483 209)">現象</text><path d="M471 260.656C471 258.541 472.716 256.826 474.833 256.826L605.167 256.826C607.284 256.826 609 258.541 609 260.656L609 275.979C609 278.095 607.284 279.81 605.167 279.81L474.833 279.81C472.716 279.81 471 278.095 471 275.979Z" stroke="#4472C4" stroke-width="2" stroke-miterlimit="8" fill="#FFFFFF" fill-rule="evenodd"/><text font-family="Calibri,Calibri_MSFontService,sans-serif" font-weight="700" font-size="14.6567" transform="matrix(1 0 0 0.999322 481.3 273)">StableMax,</text><text font-family="MS Gothic,MS Gothic_MSFontService,sans-serif" font-weight="700" font-size="14.6567" transform="matrix(1 0 0 0.999322 553.3 273)">┴</text><text font-family="Calibri,Calibri_MSFontService,sans-serif" font-weight="700" font-size="14.6567" transform="matrix(1 0 0 0.999322 567.967 273)">GRAD</text><path d="M0 0C9.64761 0 19.2952 15.9922 19.2952 31.9845 19.2952 47.9767 28.9428 63.969 38.5904 63.969" stroke="#4472C4" stroke-width="1.99864" stroke-miterlimit="8" fill="none" fill-rule="evenodd" transform="matrix(1.00068 0 0 -1 432 332.786)"/><path d="M471 429.042C471 426.65 472.94 424.712 475.333 424.712L668.667 424.712C671.06 424.712 673 426.65 673 429.042L673 446.364C673 448.755 671.06 450.694 668.667 450.694L475.333 450.694C472.94 450.694 471 448.755 471 446.364Z" stroke="#4472C4" stroke-width="2" stroke-miterlimit="8" fill="#FFFFFF" fill-rule="evenodd"/><text font-family="Yu Gothic,Yu Gothic_MSFontService,sans-serif" font-weight="700" font-size="14.6567" transform="matrix(1 0 0 0.999322 481.607 443)">継続学習の</text><text font-family="Calibri,Calibri_MSFontService,sans-serif" font-weight="700" font-size="14.6567" transform="matrix(1 0 0 0.999322 554.94 443)">Primacy</text><text font-family="Calibri,Calibri_MSFontService,sans-serif" font-weight="700" font-size="14.6567" transform="matrix(1 0 0 0.999322 607.274 443)">BIAS</text><text font-family="Yu Gothic,Yu Gothic_MSFontService,sans-serif" font-weight="700" font-size="14.6567" transform="matrix(1 0 0 0.999322 635.107 443)">対処</text><path d="M470 462.186C470 459.703 472.015 457.689 474.5 457.689L667.5 457.689C669.985 457.689 672 459.703 672 462.186L672 480.174C672 482.658 669.985 484.671 667.5 484.671L474.5 484.671C472.015 484.671 470 482.658 470 480.174Z" stroke="#4472C4" stroke-width="2" stroke-miterlimit="8" fill="#FFFFFF" fill-rule="evenodd"/><text font-family="Yu Gothic,Yu Gothic_MSFontService,sans-serif" font-weight="700" font-size="14.6567" transform="matrix(1 0 0 0.999322 480.637 476)">汎化現象研究のプローブ</text><path d="M422 421.714C433.895 421.714 445.79 434.043 445.79 446.372 445.79 458.701 457.685 471.03 469.579 471.03" stroke="#4472C4" stroke-width="2" stroke-miterlimit="8" fill="none" fill-rule="evenodd"/><path d="M422 421.714C434.137 421.714 446.275 425.651 446.275 429.588 446.275 433.524 458.412 437.461 470.549 437.461" stroke="#4472C4" stroke-width="2" stroke-miterlimit="8" fill="none" fill-rule="evenodd"/><path d="M471 232.342C471 230.411 472.567 228.845 474.5 228.845L618.5 228.845C620.433 228.845 622 230.411 622 232.342L622 246.333C622 248.264 620.433 249.83 618.5 249.83L474.5 249.83C472.567 249.83 471 248.264 471 246.333Z" stroke="#4472C4" stroke-width="2" stroke-miterlimit="8" fill="#FFFFFF" fill-rule="evenodd"/><text font-family="Calibri,Calibri_MSFontService,sans-serif" font-weight="700" font-size="14.6567" transform="matrix(1 0 0 0.999322 481.256 244)">EGD</text><text font-family="Calibri,Calibri_MSFontService,sans-serif" font-weight="700" font-size="14.6567" transform="matrix(1 0 0 0.999322 506.923 244)">(</text><text font-family="Yu Gothic,Yu Gothic_MSFontService,sans-serif" font-weight="700" font-size="14.6567" transform="matrix(1 0 0 0.999322 511.423 244)">平等勾配降下法</text><text font-family="Yu Gothic,Yu Gothic_MSFontService,sans-serif" font-weight="700" font-size="13.3243" transform="matrix(1 0 0 0.999322 625.444 244)">自然勾配降下法の変形らしい</text><path d="M0 0C9.64765 0 19.2952 23.2162 19.2952 46.4324 19.2952 69.6486 28.9428 92.8648 38.5904 92.8648" stroke="#4472C4" stroke-width="1.99864" stroke-miterlimit="8" fill="none" fill-rule="evenodd" transform="matrix(1.00068 0 0 -1 432 332.702)"/><text font-family="Calibri,Calibri_MSFontService,sans-serif" font-weight="700" font-size="14.6567" transform="matrix(1 0 0 0.999322 192.844 109)">Diffusion</text><text font-family="Calibri,Calibri_MSFontService,sans-serif" font-weight="700" font-size="14.6567" transform="matrix(1 0 0 0.999322 251.344 109)">Model</text><text font-family="Yu Gothic,Yu Gothic_MSFontService,sans-serif" font-weight="700" font-size="14.6567" transform="matrix(1 0 0 0.999322 290.844 109)">の相転移など</text></g></svg>